<svg xmlns="http://www.w3.org/2000/svg" enable-background="new 0 0 505.8 512" viewBox="0 0 505.8 512" id="female"><path fill="#275640" d="M94.6 110.4c-6.3 12-9.2 25.3-9.3 38.7-.1 23.4-3.8 69.9-28.8 102.3-34.6 44.8-65.4 162.5 6 218 57.7 44.9 161.5 46.2 202.3 3.8 22.2-23 50.3-57.1 23.1-142.4C253.3 222 147.9 8.8 94.6 110.4zM402.1 64.6c0 0 3.5 22.1 32.4 61.7 28.9 39.5 42.4 113.1 31.1 172.2-11.4 59.1 24.4 103.4 33 115 20.2 27 1.3 120.6-102.6 93.7-103.9-26.8-17.5-166.1-16.3-177.8 3.9-38.2 18.1-162-30.9-218.7C299.8 54.1 389.2 14.6 402.1 64.6L402.1 64.6z"></path><path fill="#275640" d="M173.9,33.8c28.3-19.8,62.3-31.9,97.7-33.5C320.2-1.9,385.2,8.1,417.2,69c54.9,104.5,57.9,172.2,0,259.7
		s-280.6,67.8-314.1-39.5c-33.5-107.3-40-165.6,11.5-209.5C136.6,60.9,157.4,45.4,173.9,33.8L173.9,33.8z"></path><path fill="#F5F6F3" d="M242.2,49.9L242.2,49.9c83.8,0,151.7,67.9,151.7,151.7v90.2c0,83.8-91.2,151.7-151.7,151.7l0,0
			c-46.9,0-144-67.9-144-151.7v-90.2C98.2,117.8,158.4,49.9,242.2,49.9L242.2,49.9z"></path><path fill="#275640" d="M242.2,448.1c-50.2,0-148.6-70.8-148.6-156.3v-90.2c0-42.2,14.8-81.4,41.8-110.4
			c27.5-29.6,65.4-45.9,106.8-45.9c86.2,0,156.3,70.1,156.3,156.3v90.2c0,39.5-19.4,78.8-54.7,110.7
			C312.7,430.6,273.8,448.1,242.2,448.1L242.2,448.1z M242.2,54.5c-38.8,0-74.3,15.3-100,43c-25.4,27.3-39.3,64.3-39.3,104.1v90.2
			c0,20.8,6.9,61.9,52.9,103.9c27.9,25.5,63.5,43.2,86.5,43.2c58.1,0,147.1-65.9,147.1-147.1v-90.2
			C389.3,120.5,323.3,54.5,242.2,54.5L242.2,54.5L242.2,54.5z"></path><path fill="#275640" d="M140.9,203.6c0,0,1.8-65.5,55.6-100.4c0,0-12.5,45.1-7.2,100.4c0,0,87.9,8.2,125.5-8.2c0,0-6-41,0-58.7
		c0,0,16.7,35.5,14.3,54.6c0,0,55-1.4,82.5-20.5c0,0-3.6-127-156.6-140.7c0,0-136.3-13.7-174.6,153
		C80.5,183.1,104.4,200.8,140.9,203.6L140.9,203.6z"></path><path fill="#275640" d="M421,283.7c0,0-91.5-50.2-75.3-136.3c16.1-86.1,75.3,43,75.3,43S473,265.7,421,283.7L421,283.7z"></path><path fill="#F5F6F3" d="M385.3,311.3c0,0,55,3.9,58.6-39.1c3.6-43-28.7-52.6-41.8-50.2s-21.5,8.4-32.3,16.7"></path><path fill="#275640" d="M388.8,316c-2.3,0-3.7-0.1-3.9-0.1l0.6-9.2c0.1,0,13.3,0.9,26.5-3.3c16.7-5.2,25.9-15.9,27.2-31.6
			s-2.6-28.9-11.5-37c-8.7-7.9-19.7-9.3-24.9-8.3c-12,2.2-19.8,7.7-30.3,15.8l-5.6-7.3c11.2-8.7,20.2-15.1,34.3-17.6
			c8.5-1.5,22.3,1.1,32.8,10.6c7.7,7,16.5,20.4,14.5,44.5c-1.6,19.6-13.3,33.4-33.9,39.7C404.2,315.5,394.2,316,388.8,316L388.8,316
			z"></path><path fill="#275640" d="M388.5 271.8c-.1 0-.3 0-.5 0-2.5-.2-4.4-2.5-4.1-5 .7-7.1 6.4-20.8 23.6-22.2 2.5-.2 4.7 1.7 4.9 4.2.2 2.5-1.7 4.7-4.2 4.9-13.3 1-15 12.6-15.1 13.9C392.8 270.1 390.8 271.9 388.5 271.8L388.5 271.8zM204.4 351c0 0-15.2-9.9 7.6-14 0 0 11.2-4.2 19.5 1.9 0 0 2.6 2.9 8.3-.7 5.7-3.5 23.5-.2 29.2 2.9 5.7 3.1 9.2 7.2 2.4 9.9C264.6 353.8 210.4 356.6 204.4 351L204.4 351zM183.5 226.9c-1.9 1.6-4.4 2.1-6.7 1.6-6.7-1.5-24.8-4.7-33.1.7-16.3 10.8-11.1-12.1 1.9-15.1 13.1-3 24.4-2.2 35.1 4.5C186.6 222.3 185.6 225.2 183.5 226.9L183.5 226.9zM310.9 229.2c0 0-10-8.1-26-1.1s-14.9-7-8.6-11.3c6.2-4.3 36.6-6.5 44.1 1.8C327.9 227 319.3 232.7 310.9 229.2L310.9 229.2zM222.9 311c-.7 0-1.4-.2-2.1-.5-.4-.2-9.3-4.8-11.2-14-1.3-6.2.9-12.7 6.4-19.3 11-13 10.4-16.9 9.2-25.5-.2-1.7-.5-3.6-.7-5.7-.2-2.5 1.6-4.8 4.2-5 2.5-.2 4.8 1.6 5 4.2.2 1.9.4 3.6.6 5.3 1.4 10.6 1.6 17.4-11.3 32.7-3.6 4.3-5.1 8.1-4.5 11.4 1 4.8 6.3 7.6 6.3 7.6 2.2 1.2 3.1 3.9 2 6.2C226.2 310.1 224.5 311 222.9 311L222.9 311z"></path><ellipse cx="162.9" cy="258.7" fill="#275640" rx="10.5" ry="13.4"></ellipse><ellipse cx="287.1" cy="258.7" fill="#275640" rx="10.5" ry="13.4"></ellipse><path fill="#275640" d="M221.5,378c-1.6,0-3.1-0.8-3.9-2.2c-1.3-2.2-0.6-5,1.5-6.3c0.6-0.4,14.1-8.4,32.7-3.1
		c2.4,0.7,3.9,3.2,3.2,5.7s-3.2,3.9-5.7,3.2c-14.5-4.2-24.9,1.8-25.4,2.1C223.1,377.8,222.3,378,221.5,378L221.5,378z"></path><path fill="#DDAF83" d="M265.2 300.3c0 0-4.3-17.6 17.1-16.6 21.4 1.1 28.9 8 26.7 13.9-2.1 5.9-14.4 12.8-32.6 9.6C276.4 307.2 267.7 305.5 265.2 300.3L265.2 300.3zM179.3 300.9c0 0 5.1-14.4-10.5-16.5-15.6-2.1-25.5 4.7-28.8 8.2-1.9 2.1-5.1 13.9 16.5 14.8S179.3 300.9 179.3 300.9L179.3 300.9z"></path><path fill="#275640" d="M49.2 276.3c0 0-41.4 25.5-47.7 68.6-6.3 43 7.6 66.5 25.8 75.5h15.6c0 0-42.4-8.2-31.8-77.2 0 0 8.1-36.8 38-53.7L49.2 276.3 49.2 276.3zM342.4 487.7c-17.8-15.2-11.6-59.6 27.3-97.6l-17.6-2.3c0 0-66 78.5-.1 118.8l0 0C358.8 501.5 353.1 496.8 342.4 487.7L342.4 487.7z"></path></svg>