<svg xmlns="http://www.w3.org/2000/svg" enable-background="new 0 0 442.9 512" viewBox="0 0 442.9 512" id="male"><path fill="#F5F6F3" d="M216.1,74.7L216.1,74.7c-98.3,0-157.7,59.6-157.7,161.2L55.6,317c9.3,86.5,27,109.9,91.8,160
			c9.2,7.1,42.9,30,66.9,29.4c0,0,34.6,0.6,76.5-25.1c31.5-19.3,55-40.4,79.6-68.5c11.8-13.5,14.2-38.6,12.2-65.9
			c-0.9-11.7-1.1-23.4-0.6-35.1l3.2-82C385.1,128.3,314.5,74.7,216.1,74.7L216.1,74.7z"></path><path fill="#275640" d="M213.4,512c-29.6,0-69.1-30.3-69.5-30.6C77.5,430,59.5,405.3,50.1,317.6l0-0.4l2.9-81.5
			c0-51.1,15.1-93.5,43.6-122.5c28.4-28.9,69.8-44.2,119.7-44.2s94.3,14.1,125,40.9c32.4,28.2,49.5,69.7,49.5,119.9v0.2l-3.2,82
			c-0.4,11.3-0.2,22.9,0.6,34.5c2.4,33.3-2.1,56.9-13.6,70c-26.5,30.3-50.6,51.1-80.8,69.6C251.7,511.8,217,512,214.3,512
			C214,512,213.7,512,213.4,512L213.4,512z M61.2,316.8c9.2,85,26.3,106.8,89.6,155.8c10.4,8,41.9,28.7,63.4,28.2h0.1h0.1
			c0.3,0,33.7,0.1,73.5-24.2c29.2-17.9,52.6-38,78.3-67.4c9.3-10.6,13-32,10.9-61.8c-0.9-12-1.1-24-0.6-35.7l3.2-81.9
			c0-46.8-15.8-85.3-45.7-111.4c-28.6-25-69.3-38.2-117.7-38.2s-85.5,14.1-111.7,40.8C78,147.9,64.1,187.6,64.1,235.8v0.2
			L61.2,316.8L61.2,316.8z"></path><path fill="#275640" d="M217.2,364.3c-4.2,0-7.6-1.3-10.2-4c-8.2-8.5-2.4-26.2-1.1-29.6c1.1-2.9,4.3-4.4,7.2-3.3
		c2.9,1,4.4,4.2,3.4,7.1c-2.4,6.7-3.5,15.9-1.4,18c0.7,0.7,3.1,1,7.6-0.5c11.2-3.7,11-8.9,5.6-29.7c-2.7-10.2-5.7-21.8-6-35
		c-0.1-3.1,2.4-5.6,5.5-5.7c0,0,0.1,0,0.1,0c3,0,5.5,2.4,5.6,5.5c0.2,11.9,3.1,22.8,5.6,32.4c4.6,17.6,9.4,35.8-12.9,43.2
		C222.9,363.8,219.9,364.3,217.2,364.3L217.2,364.3z"></path><ellipse cx="305.8" cy="281.1" fill="#275640" rx="12.7" ry="17.1"></ellipse><path fill="#DDAF83" d="M165.5 339.2c0 0 6.9-26.7-27.6-25.1-34.5 1.6-46.6 12.1-43.1 21 3.4 8.9 23.3 19.4 52.6 14.5C147.4 349.7 161.5 347.1 165.5 339.2L165.5 339.2zM275.3 343.7c0 0-10.6-22 16.9-27.2 27.4-5.2 45.7 4.4 51.9 9.6 3.7 3.1 10.5 21.3-27.7 25.3C278.2 355.4 275.3 343.7 275.3 343.7L275.3 343.7z"></path><ellipse cx="153.4" cy="281.1" fill="#275640" rx="12.7" ry="17.1"></ellipse><path fill="#F5F6F3" d="M73.6,356.7c0,0-29.9,21.3-56.6-17.2c-29.8-43,6-72.4,21.7-76.2c15.7-3.8,19.2-0.1,26.5,4.2"></path><path fill="#275640" d="M53.6,368.1c-2.2,0-4.5-0.2-6.9-0.6c-12.9-2.3-24.4-10.6-34.2-24.9C-3.2,320-1.3,301.6,3.1,290.1
			c7.3-19.2,25-30,34.3-32.2c15.3-3.7,21.1-1.1,28.7,3.6c0.6,0.4,1.3,0.8,2,1.2l-5.7,9.6c-0.8-0.5-1.5-0.9-2.2-1.3
			c-5.5-3.4-8.3-5.1-20.2-2.2c-7.5,1.8-21.1,11.1-26.5,25.4c-5,13-2.3,27.3,8.1,42.2c8.1,11.6,17.1,18.4,26.8,20.2
			c12.2,2.2,21.8-4.3,21.9-4.4l6.5,9.1C76.4,361.5,66.9,368.1,53.6,368.1L53.6,368.1z"></path><path fill="#275640" d="M42.6 330.6c-1.7 0-3.4-.8-4.5-2.3-12.3-16.8-4.2-33 1.8-39.2 2.2-2.2 5.7-2.3 7.9-.1 2.2 2.1 2.3 5.7.2 7.9-1.1 1.2-10.4 11.8-.9 24.8 1.8 2.5 1.3 6-1.2 7.8C44.9 330.2 43.8 330.6 42.6 330.6L42.6 330.6zM226.1 433.4C226.1 433.4 226.1 433.4 226.1 433.4l-14.7-.1c-3.1 0-5.6-2.5-5.5-5.6 0-3.1 2.5-5.5 5.6-5.5 0 0 0 0 .1 0l14.7.1c3.1 0 5.6 2.5 5.5 5.6C231.7 431 229.2 433.4 226.1 433.4L226.1 433.4zM277.9 127c0 0 135.6 58.7 149.4-55.4C441-42.5 269.4 35.7 269.4 35.7s-30.3-88.1-156.9 12.4c0 0-72.4-46.5-91.6 20.9s50.8 139.4 121.9 78.7C142.7 147.7 220.2 206 277.9 127L277.9 127z"></path><path fill="#275640" d="M21.1 267.7l-3.4-151.9c0 0-8.5-84.9 70.2-54.5 78.9 30.4-30 200.8-30 200.8L21.1 267.7 21.1 267.7zM131 228c-5.7 1.9-10.3 6.2-12.3 11.9-1.2 3.7-1.4 7.9 1.7 11.7 7.4 9.1 49 .7 53.9-4.9 5.9-6.9 5.5-17.9-7.9-21.9C155.9 221.7 140.7 224.7 131 228L131 228zM300.1 219.5c-6 .5-11.5 3.6-14.7 8.6-2.1 3.3-3.2 7.3-1.1 11.8 5 10.6 47.5 12.3 53.5 7.9 7.4-5.3 9.5-16.1-2.6-23.1C325.8 219.2 310.3 218.5 300.1 219.5L300.1 219.5zM220.7 411.6c-18.2 0-38.8-2.1-58.7-8.7-2.9-1-4.5-4.1-3.5-7.1s4.1-4.5 7.1-3.5c51.1 17 109.5 1.9 110 1.8 3-.8 6 1 6.8 4 .8 3-1 6-4 6.8C276.8 405.3 252.3 411.6 220.7 411.6L220.7 411.6zM97.5 50.5c0 0 26.2-27.3 49.7-31.4s48.2 10.5 48.2 10.5l5.4-7.7c0 0-37.9-21.1-65.5-9.3C110.9 23.1 103.4 32 87.4 51.8L97.5 50.5zM365.8 129.1c0 0 41.9 6.4 63.4-25.1 0 0 8.8-11.5 9.1-25.5 0 0 16.9 20.7-14.2 44.4-31.1 23.8-62.4 19.4-62.4 19.4L365.8 129.1 365.8 129.1z"></path><path fill="#F5F6F3" d="M146.4,54.6c0,0,73.9-57.5,103.7,4.7C250.1,59.3,209.1,32.4,146.4,54.6L146.4,54.6z"></path></svg>