<svg xmlns="http://www.w3.org/2000/svg" viewBox="0 0 3000 2400" width="3000" height="2400"><g transform="translate(682.8 535.1999999999999) rotate(0.0 331.79999999999995 777.0) scale(0.8202719406674907 0.820919175911252)"><svg width="809" height="1893" viewBox="0 0 809 1893"><path d="M409 961h35v932h-35z" fill="#666"/><path d="m593.792 1870-338.328 1.139a28.152 28.152 0 0 0-20.168 9.084l-7.949 8.26c-1.493 1.551-.588 4.517 1.379 4.517h394.786c2.049 0 2.9-3.175 1.249-4.641l-12.519-11.091a27.643 27.643 0 0 0-18.45-7.268zM100 1020H54L0 0h46z" fill="#666"/><path d="M739 0H42l54 1020h697z" fill="#ccc"/><path d="M41 1015h768v46H41z" fill="#666"/><path d="M79 1015h730v46H79z" fill="#b7b7b7"/><path d="M683.348 88.282H107l44.652 843.436H728z" fill="#fff"/><g fill="#999"><path d="M680.053 883.808H194.512l-38.565-749.616h485.54zm-483.641-2h481.535l-38.359-745.616H158.053z"/><path d="m485.451 205.332-161.74-.334-3.57-69.755 1.997-.102 3.473 67.861 157.736.326-3.468-68.085 1.997-.102z"/><path d="m549.589 263.01-283.338-.059-6.25-127.661 1.998-.098 6.156 125.759 279.333.059-6.151-125.72 1.998-.098zM516.12 882.979l-3.473-67.861-157.736-.326 3.469 68.085-1.998.102-3.575-70.192 161.74.334 3.57 69.756z"/><path d="m576.259 882.928-6.155-125.76-279.334-.058 6.152 125.72-1.999.098-6.254-127.819 283.339.06 6.249 127.661zM176.231 508H659v2H176.231zM587 320a22 22 0 1 1 22-22 22.025 22.025 0 0 1-22 22zm0-42a20 20 0 1 0 20 20 20.023 20.023 0 0 0-20-20z"/><path d="M290 523a22 22 0 1 1 22-22 22.025 22.025 0 0 1-22 22zm0-42a20 20 0 1 0 20 20 20.023 20.023 0 0 0-20-20zm308 171a22 22 0 1 1 22-22 22.025 22.025 0 0 1-22 22zm0-42a20 20 0 1 0 20 20 20.023 20.023 0 0 0-20-20zM379.939 732.9c-7.679-17.6-13.877-50.756-13.939-51.089l1.966-.365c.061.331 6.219 33.266 13.806 50.654z"/><path d="m348.122 710.949-.159-1.994a123.186 123.186 0 0 0 47.947-14.165l1.021 1.72a125.3 125.3 0 0 1-48.809 14.439zm219.14-249.11c-17.812-7.172-45.471-26.48-45.748-26.674l1.147-1.638c.276.193 27.749 19.371 45.348 26.457z"/><path d="m529.184 468.481-1.511-1.31a123.177 123.177 0 0 0 24.275-43.708l1.933.511a125.248 125.248 0 0 1-24.697 44.507zM424.629 250.274c-14.56-9.622-35.682-31.835-35.893-32.058l1.451-1.376c.211.221 21.176 22.27 35.544 31.766z"/><path d="m389.638 249.271-1.219-1.586a111.663 111.663 0 0 0 29.513-34.464l1.793.887a113.929 113.929 0 0 1-30.087 35.163zM459.5 806a19.5 19.5 0 1 1 19.5-19.5 19.523 19.523 0 0 1-19.5 19.5zm0-37a17.5 17.5 0 1 0 17.5 17.5 17.52 17.52 0 0 0-17.5-17.5zm100.273-133c-1.7 0-17.285-.061-39.947-2.188l.187-1.992c22.571 2.119 38.067 2.18 39.76 2.18H560l.01 2zm-79.746-7.372c-13.586-2.282-26.8-5.06-39.272-8.256l.5-1.938c12.419 3.183 25.576 5.949 39.107 8.221zm-77.575-20.194a277.663 277.663 0 0 1-36.546-16.634l.966-1.752a275.555 275.555 0 0 0 36.281 16.511zm-69.673-39.29a146.423 146.423 0 0 1-26.609-29.587l1.661-1.114a144.405 144.405 0 0 0 26.248 29.181zM318.74 468.673l-1.48-1.346c.109-.119 11.094-12.113 30.719-25.949l1.152 1.635c-19.431 13.699-30.284 25.542-30.391 25.66zm64.648-45.951-.878-1.8a237.054 237.054 0 0 1 37.4-14.536l.561 1.919a235.06 235.06 0 0 0-37.083 14.417zm75.581-25.309-.581-1.913c14.537-4.417 26.87-8.684 37.7-13.044l.747 1.856c-10.885 4.381-23.272 8.667-37.866 13.101zm73.777-30.985-1.062-1.695a135.846 135.846 0 0 0 30.339-25.362l1.5 1.323a137.848 137.848 0 0 1-30.777 25.734z"/></g><ellipse cx="681" cy="122" fill="#fd4e56" rx="22" ry="16"/><path d="M696.73 133.186A26.53 26.53 0 0 1 681 138c-12.15 0-22-7.163-22-16a13.11 13.11 0 0 1 3.757-8.946C666 127 681 134 696.73 133.186z" fill="#cd3f44"/><ellipse cx="171" cy="89" fill="#fd4e56" rx="22" ry="16"/><path d="M186.73 100.186A26.53 26.53 0 0 1 171 105c-12.15 0-22-7.163-22-16a13.11 13.11 0 0 1 3.757-8.946C156 94 171 101 186.73 100.186z" fill="#cd3f44"/></svg></g><g transform="translate(667.1999999999999 974.4) rotate(0.0 109.80000000000001 78.59999999999997) scale(0.8228047300031475 0.8249283697694184)"><svg width="266.892" height="190.562" viewBox="0 0 266.892 190.562"><path d="M.993 188.234a5.468 5.468 0 0 1 1.377-7.647L264.5.269a1.529 1.529 0 0 1 2.118.382 1.529 1.529 0 0 1-.354 2.116L8.68 189.521a5.469 5.469 0 0 1-7.687-1.287z" fill="#020202"/></svg></g><g transform="translate(79.2 334.8) rotate(0.0 511.79999999999995 930.6) scale(0.8311666377052135 0.8311956498438716)"><svg width="1231.522" height="2239.184" viewBox="0 0 1231.522 2239.184"><linearGradient id="a" gradientTransform="matrix(0 1.096 1.097 0 -15332.511 19208.51)" gradientUnits="userSpaceOnUse" x1="-17366.384" x2="-17319.688" y1="14328.063" y2="14328.063"><stop offset=".382" stop-color="#f89578"/><stop offset=".994" stop-color="#fdb899"/></linearGradient><linearGradient id="b" gradientTransform="matrix(-1.005 .058 .069 1.073 16972.627 -6194.138)" gradientUnits="userSpaceOnUse" x1="16728.915" x2="16759.556" y1="5059.457" y2="5059.457"><stop offset=".197" stop-color="#fdb899"/><stop offset=".724" stop-color="#f89578"/></linearGradient><path d="M499.522 336.184c-37 21-78 30-78 30-103 2-139-17-139-17 0-28.55 0-53.32 37.9-60.36 9.891-1.84 22.371-2.47 38.1-1.64 33.33 1.75 52.109 3.56 85 6 6.06.45 11.39 1 16.069 1.66 1.5.21 2.921.43 4.29.66 32.48 5.52 38.201 19.38 35.641 40.68z" fill="#fd4e56"/><path d="m427.919 1943.682 102.6-3v97.527l-102.6 3z" fill="#999"/><path d="M415.556 2013.464c-2.755 7 7.9 27.105 7.9 27.105l-10.264 74.52c-10.962-2.226-15.178 44.886-7.747 57.727s43.36 8.4 93.709 12.022c32.5 2.34 57.92-2.224 91.123 13.319 85.426 39.991 169.047 11.514 189.338 2.374 11.735-10.544 18.494-37.231.453-53.033-43.307-11.414-187.115-76.935-216.953-136.588-7.9-15.783.356-30.989-6.971-38.956-16.362-17.792-71.436 25.048-69.5 31.746-.002-1.821-64.344-7.363-71.088 9.764z" fill="#2d3237"/><path d="M419.561 2135.705a75.735 75.735 0 0 0 6.37 20.619c-2.036 3.644 59.351 16.77 110.708 13.023 18.547-1.353 42.246 7.054 80.161 22.751 38.078 17.53 164.1 2.967 159.429-1.263 3.368-4.139 2.587-10.385 2.582-14.755 0 0-106.226 19.541-157.038 1.941s-67.411-24.073-88.964-22.368c-31.718 2.509-108.309-12.218-113.248-19.948zm18.88-28.857-1.973 10.024s27.668 6.942 48.347 4.746c20.956-2.226 18.3-2.966 39.061 2.154 16.577 4.089 52.861 22.155 52.861 22.155l4.193-2.78s-56.657-34.069-83.529-31.878c-26.787 2.182-58.96-4.421-58.96-4.421zm334.959 38.984c-10.487 17.013-59.51 18.044-125.413 12.072 0 0 83.007 16.27 115.541.636 15.342-7.341 16.535-11.046 16.535-11.046zM573.969 2026.3c2.249-8.082-71.32-11.154-68.623 12.383.363 3.163 1.317 3.748 4.868 4.586 4.531 1.072 59.463-5.073 67.965-.566 0 0-47.687 7-54.906 17.075-2.173 3.031-2.33 8.509-.28 14.066 2.163 5.862 77.172-17.843 84.369-9.538 0 0-56.644 5.511-58.022 34.275-.187 3.927 2.987 10.927 7.3 8.765 53.249-26.7 72.548-18.781 72.548-18.781s-39.256 18.652-42.125 35.349c-1.277 7.433 4.327 13.581 6.773 12.8 13.228-4.229 58.2-34.187 61.75-31.352 0 0-39.172 22.359-39.31 44.242-.029 4.5 1.176 6.45 2.9 5.486 22.6-12.639 47.664-33.943 84.092-38.437-.038-4.3-8.559-7.1-12.072-7.407s-30.836 8.216-67.048 34.02c-4.767-14.01 35.083-33.521 55.5-38.587 2.5-.625-8.558-7.1-13.4-7.776-11.871-1.664-76.718 27.79-72.37 30.7-3.841-17.96 40.358-34.115 56.317-39.221 1.222-.391-5.9-6.358-9.883-7.468-19.106-5.333-81.451 10.03-80.518 17.327 6-19.111 23.4-28.374 59.492-30.6 2.918-.18-3.25-5.621-9.021-7.9-14.558-5.761-77.649 4.338-76.712 7.361-4.828-13.968 39.841-17.648 61.457-18.348.629-.02-3.927-6.943-9.088-9.938-25.364-14.726-69.791-3.715-69.791-3.715-1.785-6.074 24.381-10.526 57.83-8.8z" fill="#fff"/><path d="m142.052 2068.854-89.011-9.848 13.018-122.4 89.7 7.081z" fill="#999"/><path d="M163.723 2104c-2.788-6.535-4.973-17.157-3-26.684 17.061-82.208 16.672-77.186 12.29-79.72s-15.8-7.453-19.13-.033c-3.9 8.683-10.981 27.886-10.981 27.886-12.082-39.167-62.95-42.2-84.907-7.17 0 0-2.847-13.925-5.592-20.892s-21.924-3.659-21.233-.038c-3.69 7.6 6.913 61.7 7.4 80.349a79.878 79.878 0 0 1-2.929 25.038c-8.483 27.784-28.372 46.936-34.507 68.433-1.622 5.68-3.021 38.12 7.1 45.992 31.4 24.422 134.479 31 175.6 7.059 9.62-5.6 10.229-40.74 9.8-45.781-.924-10.894-1.912-8.802-29.911-74.439z" fill="#2d3237"/><path d="M31.289 2156.629c12.46 16.258 100.836 30.591 145.01 4.39 0 0-44.784 34.1-133.917 6.552-15.984-6.232-15.72-11.005-15.72-11.005zM6.2 2179.114s19.257 29.116 104.591 27.576c57.9-1.044 77.926-22.831 77.926-22.831s-4.632 27.941-5.728 31.552-48.9 31.17-143.367 8.836c-15.2-3.593-27.788-9.392-29.793-19.568S6.2 2179.114 6.2 2179.114zm52.857-149.533c-2.667-.093-6.74 3.663-5.9 6.523 1.994 10.265 74.636 13.841 76.783 14.019 3.475.287 11.612.843 11 2.284-3.944 9.28-80.63-1.184-84.487-1.265s-2.59 7.562 1.819 9.433 63.949 13.384 66.112 14.007 3.162 2.6.029 2.873c-8.936.806-60.616-3.136-64.169-1.88-2.6.918-.586 7.4 1.594 8.438 7.84 3.727 63.033 8.033 67.749 9.183s2.333 2.623-2.79 3.258c-21.145 2.6-59.406-2.349-63.022-3.033s-1.905 4.372-.724 6c4.759 6.527 58.6 10.7 61.881 14.288 5.836 6.388-53.894.2-67.6-5.858-.69-.305-3.422 2.716-1.532 3.605s54.794 11.136 82 3.8c3.746-1.009 7.636-4.746 2.905-7.446s-50.625-2.077-61.169-6.4 44.1 8.363 67.2-2.748c3.281-1.109 4.649-10.492-3.709-10.251-6.752.189-27.618 6.179-63.976-4.22-5.663-1.624 1.214-1.712 3.9-1.474 25.581 2.261 58.078 2.456 61.366-5.8 1.341-3.373 1.8-8.153-5.89-8.915-34.181-4.586-79.95-11.321-60.524-10.032 29.074 3.352 73.5 6.913 76.678-5.2.976-3.723-1.072-5.371-4.057-6.058s-87.825-8.593-64.552-6.968c55.546 3.879 70.87-11.88 74.3-14.068s-2.714-4.759-5.528-4.013-7.1 3.31-20.485 5.586c-32.1 4.61-72.535 2.433-75.2 2.34z" fill="#fff"/><path d="M606.2 1516.734c-9.68 180.45-41.68 451.45-58.68 465.45-4.09 3.36-26.431 6.95-51.97 8.41-8.381.48-17.1.73-25.651.67-26.179-.18-50.629-3.28-58.029-11.66-.12-.14-.241-.28-.35-.42-14-10-35-232-4-467-7-167-6-282-2.59-386.24-19 97.75-50.13 255.55-83.41 393.24-51 211-124.07 443.67-135 454-14 19-142 11-148-13-9.05-3.62-4-191 79-469 26-217 52.049-368.1 80.89-547.24l411.719 21.65c6.171 197.5 1.513 388.68-3.929 551.14z" fill="#bdcfd6"/><path d="M281.642 1534.734c-32.651 2.39-55.59 1.07-105.02-17.88-5.86-2.24-8.381 14.49 38.19 25.91 44.37 10.88 84.81-9.35 66.83-8.03zm288.31-12.92c-29.571 13.96-48.45 11.2-76.52 7.1-6.21-.91-1.29 14.12 38.13 13.85 38.62-.28 56.19-29.34 38.39-20.95zm-158.281-420.33q-4 .2-6.739 24.46c-3.41 104.24-4.41 219.24 2.59 386.24-31 235-10 457 4 467 .109.14.23.28.35.42 7.4 8.38 31.85 11.48 58.029 11.66-58.939-233.72-42.849-890.52-58.23-889.78z" fill="#89989e"/><path d="M563.113 2010.91c-7.9-15.783.356-30.989-6.971-38.956-16.362-17.792-71.436 25.048-69.5 31.746z" fill="#2d3237"/><path d="M611.241 1034.444c-84.96 28.66-230.529-8.28-346.989-17.4-38.96-3.05-78.04 11.58-78.82 7.17-3.071-17.4 4.1-37.88 4.1-37.88l34.14-34.13 2.71-2.71s11.011.72 29.31 2c14.511 1.01 33.6 2.38 55.42 4.01 112.241 8.43 296.6 24.04 300.13 35.95a83.324 83.324 0 0 1 3.62 21.83c.32 13.77-3.621 21.16-3.621 21.16zM448.266 324.34h.001l-.001-.001z" fill="#fd4e56"/><path d="M1055.191 604.414c-5.689 6.47-277.779 153.53-313.549 137.85-31.13-13.64-82.43-60.81-101.12-78.56-4.48-4.26-7.09-6.82-7.09-6.82s-.111 48.99-.66 108.58l-.031 3.07c-.489 52.63-1.309 112.92-2.67 154.89l-.029.99c-.03.73-.051 1.45-.08 2.16l-.03.99c-.88 25.47-1.98 43.43-3.341 47.52-1.9 5.7-7.8 13.13-15.35 16.37-34.36 14.73-100.309 17.4-319.349-15.35a190.722 190.722 0 0 0-36.051-1.92c-38.42 1.55-64.2 13.86-66.31 12.15-46.009-37.15-19.449-26.88-20.429-139.35-.94-108.72-53.361-337.95-6.721-417.7 17.94-30.68 63.821-56.24 106.71-74.53a595.49 595.49 0 0 1 13.461-5.55h.01a728.219 728.219 0 0 1 76-25.57 1.374 1.374 0 0 0-.21.12c12.06-3.82 26.679-5.42 41.279-5.42 17.831 0 35.621 2.39 48.641 6.01.02 0 18.21 3.27 42.7 9.5q4.185 1.065 8.59 2.24s.009.01.009 0c.58.16 1.181.32 1.77.48q4.185 1.125 8.511 2.37c35.21 10.02 76.33 25 96.67 44.25 72.54 68.64 143.83 139.76 171.69 167.73 6.83 6.85 11.05 11.12 12.05 12.12a.625.625 0 0 0 .07.09c.1.09.15.14.15.14s196.53-45 207.33-48.41 63.069 83.08 57.379 89.56z" fill="#fd4e56"/><path d="M640.522 663.7c-4.48-4.26-7.09-6.82-7.09-6.82-17.91-212.7-82.467-283.405-64.91-271.7 27 18.004 66 159.004 72 278.52zm149.74-100.666c-1-1-5.22-5.27-12.05-12.12-4.041 21.05-15.771 84.27-10.69 84.27 5 0 22.96-71.92 22.96-71.92a.407.407 0 0 1-.15-.14" fill="#cd3f44"/><path d="M1007.81 534.049c6.937-23.51 27.313-65.824 52.7-79.3s55.105-43.4 58.9-36.05c11.069 21.413-13.456 47.959-13.456 47.959q40.681-15.573 69.747-24.875c13.139-4.206 55.817-10.2 38.575 10.831 26.257-3.823 19.93 16.824-1.606 27.531 15.225-7.57 32.063 9.941-18.322 31.353 19.929-4.836 29.392 4.971-11.068 30.972-16.94 10.886-39.7 30.971-90.462 44.7-33.714 9.119-36.258 9.608-49.238 7.681-10.306-1.529-38.933-50.088-35.772-60.8z" fill="#ffb493"/><path d="M1112.177 458.582s-35.1 19.88-41.157 26.233c-16.183 16.982-16.247 42.244-14.7 42.738 0 0 2.366-29.386 22.709-40.79 19.956-11.188 26.931-20.1 26.931-20.1a68.432 68.432 0 0 0 6.22-8.076zm2.372 34.485c37.764-26.156 101.972-44.275 101.972-44.275l-2.241 3.821s-104.656 43.866-99.731 40.454zm9.513 20.624c-7.031-.916 95.952-37.968 95.952-37.968l-7.34 4.422s-80.343 34.625-88.612 33.547zm13.69 22.235c-5.631.767 56.6-24.43 56.6-24.43l6.383-1.081s-53.922 24.277-62.983 25.511z" fill="#f79173"/><g fill="#cd3f44"><path d="M327.522 978.184s-88-2-114 11c-12.713 6.356-28.09 35.03-28.09 35.03-3.071-17.4 4.1-37.88 4.1-37.88-46.009-37.15-19.449-26.88-20.429-139.35 0 0 3.179 93.81 17.8 102.51 5.697 3.39 51.619 9.69 140.619 28.69zm287.339 35.1c-42.339.9-68.339-12.1-68.339-12.1 55-4 64.719-9.73 64.719-9.73a83.324 83.324 0 0 1 3.62 21.83zm-105.009-674.35c-11.861 8.86-36.33 29.25-85.33 36.25-38.767 5.538-84 1-155.431-20.43a595.49 595.49 0 0 1 13.461-5.55h.01c1.74.77 69.472 32.392 140.96 23.98 42.168-4.962 67.14-29.44 76.04-37.1 0 0 .009.01.009 0 .58.16 1.181.32 1.77.48q4.185 1.125 8.511 2.37z"/><path d="m414.522 351.184 39 15 8-3z"/></g><path d="M391.291 361.461s-19.769 30.723-9.769 93.723c0 0-5 8-7 4s-11.1-64.511 14.95-99.255c0 0 2.588-.192 1.819 1.532zm57.643-11.48s28.588 23.2 38.719 68.835c0 0 7.8 5.305 8.019.839s-15.15-55.471-45.69-71.809c0 0-2.447.868-1.048 2.135z" fill="#f7f7f7"/><path d="M193.667 397.268c44.679-26.571 85.791 84.345 201.277 271.943 20.3 32.98 325.349 123.959 335.443 137.02 9.143 11.831-21.472 125.278-30.094 124.891-99.613-4.46-298.333-53.723-340.625-85.644C312.79 810.1 159.5 645.461 150.3 577.291c-10.491-77.772-6.894-150.133 43.367-180.023z" fill="#fd4e56"/><path d="M630.042 923.414c-63.49-16.68-236.451-59.21-275.17-89.47-152.65-119.3-190.34-229.91-190.35-224.76 0 9.36 32 114 181 232 46.3 38.99 220.6 74.06 284.41 85.38a.038.038 0 0 1 .03.01c.029-.71.05-1.43.08-2.16l.029-.99c-.009 0-.019-.01-.029-.01zm-229.52-256.23c-26.51-53.89-103.351-206.25-141-247-39.6-42.86-72.621-18.43-72.621-18.43 61.261-21.73 140.44 157.59 203.23 264.38 1.81 3.08-23.379 37.09-21.609 40.05 3 5 30.419-29.11 31.589-28.73 7.551 2.45 182.58 73.7 232.63 91.08l.031-3.07c-72.55-29.24-230.641-95.02-232.25-98.28z" fill="#cd3f44"/><path d="M795.522 826.014s55.945 10.857 61.472 18.514-32.877 20.139-32.877 20.139l-42.164-32.185z" fill="#f79173"/><path d="M843.8 895.109c-2.509 1.561-5.262 1.949-7.362.706 3.488 4.636-.544 16.316-9.873 18a15.329 15.329 0 0 1-8.763-1.181c2.983 6.583-4.129 14.04-11.713 15.686a11.484 11.484 0 0 1-8.6-1.159c-6.81 17.339-25.793 9.506-48.537-.152-17.344-8.572-55-2.834-61.272-23.739-3.288-10.962 21.6-85.981 33.287-87.243h.01c21.2-2.279 61.741 3.126 67.845 5.655 23.434 9.709 51.114 37.445 59.224 49.339a17.167 17.167 0 0 1-4.246 24.088z" fill="#ffb493"/><path d="M843.8 895.109c-2.509 1.561-5.262 1.949-7.362.706 0 0-37.354-29.283-35-31.076s42.362 30.37 42.362 30.37zm-17.234 18.707a15.329 15.329 0 0 1-8.763-1.181s-38.224-26.585-35.733-29.413c1.381-1.565 44.496 30.594 44.496 30.594zm-20.476 14.505a11.484 11.484 0 0 1-8.6-1.159s-35.826-25.6-33.475-27.389c2.331-1.773 41.201 27.914 42.075 28.548z" fill="#f79173"/><path d="M459.591 294.844c-5.489 9.05-23.039 28.74-23.039 28.74s-29.03 26.6-70.08 1.27-46.051-36.03-46.051-36.03c9.891-1.84 22.371-2.47 38.1-1.64 33.33 1.75 52.109 3.56 85 6 6.061.45 11.391 1 16.07 1.66z" fill="#cd3f44"/><path d="M436.552 323.584c.84 2.28-14.03 19.6-22.03 27.6-17-6-36.01-16.6-48.05-26.33-.131-2.04-.3-4.24-.5-6.52-1.41-15.9-4.39-36.21-6.67-41.35l78.139 12.04a88.319 88.319 0 0 0-2.16 16.27 75.289 75.289 0 0 0 1.271 18.29z" fill="#ffb493"/><path d="M437.441 289.024a88.319 88.319 0 0 0-2.16 16.27c-23.239 19.11-69.309 13.04-69.309 13.04-1.41-15.9-4.39-36.21-6.67-41.35z" fill="#f79173"/><path d="M276.846 185.225C271.075 198 282.833 221.889 297 227.782c10.06 4.186 20.359.018 19.711-.965 4.3 10.634 11.934 32.116 34.319 49.646 9.977 7.812 32.527 25.029 65.32 23.664 6.263-.261 41.875-6.844 64.208-34.125 31.322-38.261 11.741-82.978 12.778-86.66 5.594-19.854 10.256-35.009-1.617-60.289-28.389-68.767-84.332-61.83-88.165-62.034-6.743-.359-70.2-2.726-94.787 45.463-17.965 35.217 6.787 81.467 2.428 76.872-11.2-11.813-27.592-7.753-34.35 5.871z" fill="#ffb493"/><path d="M426.94 203.242c-1.656-5.139 15.879-18.619 23.276-14.462a7.949 7.949 0 0 1 3.642 7.362c-.43 3.889-4.382 6.142-6.213 7.186-7.8 4.445-19.508 3.631-20.7-.085z" fill="#f89578"/><path d="M314.122 186.5c28.236-39.145 77.124-67.844 171.827-80-1.886.242-20-59.774-99.371-51.415-48.346 6.423-81.43 32.7-84.243 71.824-2.217 30.837 11.788 59.594 11.788 59.594z" fill="#f79173"/><ellipse cx="383.931" cy="202.262" fill="url(#a)" rx="25.61" ry="25.587" transform="matrix(.07170635 -.99742579 .99742579 .07170635 154.659 570.701)"/><path d="M467.218 207.551c-1.3-11.162 5.444-21.12 15.057-22.241 10.021-.46 13.149 4.628 13.149 4.628a120.933 120.933 0 0 1 3.049 27.752s-3.532 8.452-11.5 8.044c-9.08 1.026-18.576-8.025-19.757-18.182z" fill="url(#b)"/><ellipse cx="477.871" cy="167.632" fill="#020202" rx="9.459" ry="9.451" transform="matrix(.07170635 -.99742579 .99742579 .07170635 276.403 632.252)"/><ellipse cx="402.999" cy="164.358" fill="#020202" rx="9.459" ry="9.451" transform="matrix(.07170635 -.99742579 .99742579 .07170635 210.166 554.534)"/><path d="M405.334 219.484c-1.182.111 16.909 23.308 31.579 24.5 15.2 1.237 33.561-18.948 36.367-22.145a.266.266 0 0 0-.188-.444c-6.234-.22-64.162-2.25-67.758-1.913z" fill="#fff"/><path d="M405.312 219.44c2.033-5.945 66.249-1.01 68.152 2.213" fill="#fa8e79"/><path d="M497.494 139.772c2.576 1.772 3.995 5.058-1.306 4.258-13.479-2.034-29.845-3.94-31.494-5.213-2.906-2.242 1.024-6.451 4.264-7.242 7.871-1.923 23.076 4.442 28.538 8.2z" fill="#582c0d"/><path d="M480.785 124.928c-23.831 11.465-38.709-.554-47.382-28.851-17.41 14.146-32.308 16.594-45 8.793-9.68 15.135-24.093 17.777-41.952 11.326-2.761 20.989-8.782 36.067-21.043 41.975 13.742 14.044-4.232 52.436-4.232 52.436s-1.521-8.449-7.44-24.592c-1.58-4.31-15.1-19.218-30.371-9.394C255.464 83.6 273.347 67 295.3 69.032c-.327-14.413 8.583-25.517 31.845-31.483 19.229-41.149 50.86-50.709 71.974-17.494 30.61-8.031 51.016-2.4 62.2 15.575 32.432-.423 44.522 8.637 36.752 28.1 50.764 15.481 28.412 98.515-17.289 61.2zM387.949 21.1s-4.262-12.009-15.9-14.666c-8.806-1.212-19.47 4.971-22.954 15.111 12.739-10.9 32.877-5.714 38.858-.445zm106.509 29.629c-1.935-11.06-25.784-8.1-25.784-8.1 16.882 2.372 24.923 7.6 24.3 15.626-.002.004 1.914-4.928 1.484-7.526zM303.194 229.206c3.034 10.6 10.271 17.362 22 15.461-3.093-6.188-6.5-12.941-8.4-18.183-3.937 2.946-8.628 3.314-13.6 2.723z" fill="#582c0d"/><path d="M369.443 137.763c-3.255 2.265-5.035 6.444 1.686 5.391 17.083-2.677 37.829-5.211 39.913-6.837 3.672-2.864-1.34-8.175-5.455-9.155-10-2.381-29.241 5.8-36.143 10.6zm119.476 96.905c-6.454.7-6.059-18.862-11.006-22.255s-78.636-10.117-85.746-3.455c-4.649 4.358-11.557 34.779-30.1 34.872-15.478.071-33.934-29.065-35.8-50.106s-12.93-17.987-15.247-13.461c17.534 38.742 4.142 47.79 4.142 47.79s15.582 34.917 23.38 45.46c3.782 5.121 26.349 20.905 56.64 25.464 27.174 4.079 61.872-2.283 73.013-10.068 12.119-8.483 27.729-43.309 29.523-63.2-.004-.003-2.358 8.238-8.799 8.959zM470.3 245.907c-18.351 17.22-60.609 9.9-69.622-3.579-1.664-2.49 2.974-23.118 3.842-23.683a194.633 194.633 0 0 1 68.437 2.211s.276 22.298-2.657 25.051z" fill="#582c0d"/></svg></g><g transform="translate(1060.8 1165.2) rotate(0.0 528.6 541.1999999999999) scale(0.8365697790354285 0.8366706629594672)"><svg width="1263.732" height="1293.699" viewBox="0 0 1263.732 1293.699"><linearGradient id="c" gradientTransform="matrix(0 -.071 .071 0 -4815.077 11561.904)" gradientUnits="userSpaceOnUse" x1="160423.264" x2="161144.926" y1="81838.594" y2="81838.594"><stop offset=".354" stop-color="#7c3939"/><stop offset=".994" stop-color="#744747"/></linearGradient><linearGradient xmlns:xlink="http://www.w3.org/1999/xlink" id="d" gradientTransform="matrix(.062 .019 -.02 .067 11169.381 5927.97)" x1="-176640.053" x2="-176166.689" xlink:href="#c" y1="-36573.806" y2="-36573.806"/><path d="M636.444 896.813s4.4-18.388 26.651-47.132l22.255-28.745 68.374 113.87z" fill="#af333c"/><path d="M1048.7 1039.786c-114.26 55.26-220.33-1.69-310.24-83.49-11.24-10.229-22.23-20.84-32.949-31.67v-.01c-13.741-13.88-27.031-28.11-39.851-42.34q-9.5-10.56-18.66-21.07c-10.93-12.52-21.469-24.9-31.61-36.889-12.41-14.671-24.21-28.771-35.37-41.821-6.16 10.29-30.83 57.3-79.989 125.77-33.44 46.56-141.7 176.24-166.711 210.21l-59.78-79.23s151.2-318.889 173.12-359.38 95.391-114.94 189.71-72.11c16.71 7.59 80.57 50.36 145.3 95.53 1.37.96 2.74 1.91 4.111 2.87.009.01.029.02.039.03 68.88 48.131 137.62 98.18 150.53 110.66 57.024 55.154 112.35 222.94 112.35 222.94z" fill="#633b3b"/><path d="m785.785 706.306-6.02 206.82h-81.96c-10.96-9.97-21.67-20.3-32.141-30.85q-9.5-10.56-18.66-21.07c-10.93-12.52-21.469-24.9-31.61-36.889 20.98 14.449 32.511 25.229 49.46 22.809 20.17-2.88 88-55 120.931-140.82z" fill="#563535"/><path d="M1069.878 1029.035S998.4 1113.418 873 1051.279c-110.066-54.543-225.287-134.591-236.556-154.466 21.41-2.687 130.41-84.687 149.41-190.687 0 0 179.528 102.505 199.948 121.511s79.869 108.609 84.076 201.398z" fill="#cd3f44"/><path d="M565.084 816.817q-.27.118-.54.209c-1.23 2.291-2.97 5.17-5.159 8.57q-2.221 3.45-5.051 7.6c-1.85 2.73-4.08 5.55-6.1 8.82-54.38 88.11-200.38 259.11-200.38 259.11l-82-50c-.83.27 112.06-234.79 158.21-329.05 2.27-4.65 4.39-8.95 6.321-12.87 1.7-3.46 3.259-6.62 4.659-9.44 2.4-4.83 4.33-8.68 5.73-11.409a1.532 1.532 0 0 0 .08-.231c0-8 6-23 14-22 5.97 5.08 99.15 128.66 117.22 132.09 4.67.891.95 15.26-6.99 18.601z" fill="#d6d6d6"/><path d="M565.084 816.817q-.27.118-.54.209c-1.23 2.291-2.97 5.17-5.159 8.57-6.611-2.88-61.651-54.7-124.341-125.83 2.4-4.83 4.33-8.68 5.73-11.409a1.532 1.532 0 0 0 .08-.231c8.58 11.174 58 69 124.23 128.691zm-10.75 16.383c-1.85 2.73-3.89 5.68-6.1 8.82-26.7-17.449-66.41-60.12-124.17-119.94 2.27-4.65 4.39-8.95 6.321-12.87 16.849 19.526 71.079 82.526 123.949 123.99z" fill="#f7f7f7"/><path d="M395.677 1075.154c1.127 7.458-26.4 32.91-26.4 32.91s15.165 65.423-6.143 86.541c-10.546 10.453-34.67 10.952-83.007-1.644-30.371-7.914-50.393-21.3-91.007-15.68-83.23 11.511-165.959-21.844-183.55-35.181-9.022-12.872-8.532-31.686 12.351-43.287 44.322-1.845 182.409-1.358 224.3-53.412 12.826-14.259 10.784-36.928 20.855-44.711 23.729-12.08 89.646 57.3 86.3 63.445.406-1.789 43.545-7.23 46.301 11.019z" fill="#020202"/><path d="M251.053 1179.82s2.466 17.831 5.712 19.4 12.709 4.3 16.671 3.751 18.684-15.707 18.684-15.707zm90.94 18.636s-8.378 14.532-11.731 14.75-12.48-.741-15.709-2.6-10.628-20.111-10.628-20.111zm-266.122-32.141s4.092 17.529 7.468 18.795 13.05 3.114 16.945 2.205 17.163-17.356 17.163-17.356zm92.266 10.211s-7.009 15.239-10.327 15.764-12.5.408-15.882-1.15-12.429-19.05-12.429-19.05zm-105.45-12.571s-10.129 13.37-13.482 13.168-12.29-2.3-15.261-4.546-8.031-21.281-8.031-21.281z" fill="#020202"/><path d="M237.817 1048.79c.081-7.773 54.574 4.553 46.21 24.875-1.123 2.73-2.109 3.01-5.442 2.869-4.255-.179-43.267-16.435-51.878-14.545 0 0 32.428 15.2 36.206 26 1.137 3.248-.12 8.175-3.336 12.617-3.392 4.687-54.755-27.382-63.193-21.778 0 0 34.361 7.956 28.246 33.961-.835 3.55-5.407 9-8.642 5.989-41.246-34.648-51.594-30.423-51.594-30.423s24.224 20.695 22.493 36.306c-.771 6.95-7.26 11.03-9.209 9.719-10.544-7.09-36.911-39.305-40.75-37.668 0 0 18.556 19.58 13.108 39.131-1.121 4.023-2.677 5.458-3.948 4.165-16.637-16.941-24.915-31.3-55.773-44.447 1.129-3.828 7.715-5.659 11.951-4.226 3.054 1.033 17.222 4.779 42.466 36.879 2.659-11.79-10.725-25.672-27.377-35.314-2.037-1.179 5.442-5.895 12.65-4.873 10.853 1.493 54.507 36.7 49.942 38.207 7.949-15.059-18.588-30.086-31.308-38.64-.974-.656 2.747-5.553 10.809-5.658 18.14-.237 58.753 21.644 56.076 27.92-.4-18.551.665-20.015-30.475-31.049-2.518-.892 1.188-5.13 8.122-6.089 14.257-1.489 60.427 16.757 58.835 19.218 7.8-11.249-18.774-19.092-37.585-25.138-.545-.174.032-7.071 8.81-9.294 26.033-6.775 52.229 10.254 52.229 10.254 3.115-4.972-7.895-12.057-37.72-18.9zm-224.533 76.086c6.442-4.417 63.787 30.55 119.059 36.029 40.477 4.013 75.312-8.566 102.438-6.681s91.673 22.006 117.69 21.665c8.062-.1-1.18 18.335-8.7 17.357s-96.2-24.048-115.845-27.388c-15.351-2.611-84.064 6.738-96.191 5.227-60.246-7.507-115.17-29.819-117.382-31.213s-4.753-12.467-1.069-14.996z" fill="#fff"/><path d="M1218.858 1010.123c-6.21 6.21-14.82-174.27-71.37-216.14s-243.57-12.04-255.63-16.86c-1.62-.65-8.39-19.06-17.22-45.38-10.49-31.35-23.9-73.92-34.98-111.08-8.32-27.9-11-54.48-14.48-69.26l-.36.15c-7.45 3.15-130.01 54.64-137.62 48.89a.673.673 0 0 1-.15-.14l-.12-.18c-4-8-77.07-152-69.07-157 22-12 158-74 203-94 5.82-2.59 20.95-8.63 45.53-15.82a845.91 845.91 0 0 1 87.47-20.18c-9 32 22 63 75-10 66 5 136.43 8.89 184 64 63 73 1 289 31 401 4 20 14.69 57.12 19 98 6 57-20 120-44 144z" fill="#bdcfd6"/><path d="M1181.494 778.092s34.821 38.184 46.443 69.249 25.632 6.069 5.958-22.565-64.989-62.881-64.989-62.881z" fill="#89989e"/><path d="M1154.854 1062.126c-149.66 20.88-187-108-199.33-187.18-33.43 46.56-141.69 176.24-166.71 210.22l-76.96-40.04s169.94-356.8 189.31-398.57a216.185 216.185 0 0 1 12.25-22.7c27.78-44.98 78.57-91.28 140.83-57.55q4.545 2.46 9.18 5.51a158.194 158.194 0 0 1 18.43 14.31c40.93 36.65 108.27 213.28 140 317 26 85-24 153-67 159z" fill="#744747"/><path d="M1034.109 754.536s19.745-52.41 21.745-55.41-2 31 2 41 94-29 94-29l-26 82h-91.745l-21.255-22z" fill="#633b3b"/><path d="M1158.854 1067.126c-45.044 18.2-132 0-174.9-87.7-53.978-110.346-83.739-167.352-80.019-189.894 34.738 3.2 177.592-12.9 247.918-78.41 0 0 53 109 72 173 7.941 26.747 34.001 143.004-64.999 183.004z" fill="#fd4e56"/><path d="M1027.1 773.546a1.858 1.858 0 0 1-.11.19c-1.67 2.99-3.5 6.15-5.49 9.45v.01q-3.33 5.55-7.23 11.62-2.895 4.56-6.1 9.39c-65.65 99.28-215.32 277.92-215.32 277.92l-79.87-45.34s105.66-221.77 144.5-305.17q2.415-5.19 4.48-9.64c1.99-4.31 3.71-8.06 5.13-11.17 2.52-5.55 4.07-9.06 4.42-10.09a1.887 1.887 0 0 0 .06-.21c-.22-7.99 5.36-23.15 13.39-22.37 6.1 4.91 131 73.46 149.14 76.4 4.814.78 1.234 15.88-7 19.01z" fill="#d6d6d6"/><path d="M1026.994 773.736c-1.67 2.99-3.5 6.15-5.49 9.45-13.38-2.23-85.65-24.06-154.41-72.38-.02-.01-.03-.03-.05-.04q2.31-5.49 4.34-10.15a.929.929 0 0 0 .13.1c3.22 2.61 76.34 49.41 155.48 73.02zm-12.72 21.08q-2.895 4.56-6.1 9.39c-19.94-4.1-85.32-24.08-150.69-72.59q2.415-5.19 4.48-9.64c10.06 8.56 76.89 53.15 152.31 72.84z" fill="#f7f7f7"/><path d="M678.712 1090.828c14.605-83.029 13.112-78.2 18.078-78.972s17.288-1.23 17.622 6.915c.392 9.532.235 18.2.235 18.2 25.567-32.219 76.086-12.575 83.38 28.139 0 0 4.76-4.145 9.856-9.659s21.528 4.54 19.557 7.673c.047 7.113-23.593 39.658-36.432 72.413-3.567 9.1-5.941 17.364-6.536 24.465-1.094 17.315 7.758 32.413 14.957 63.56 1.334 5.774 1.865 37.224-8.976 43.949-33.64 20.869-135.731 15.9-173.438-12.6-8.82-6.667-9.381-31.555-3.962-47.132 9.228-26.524 60.311-81.538 65.659-116.951z" fill="#020202"/><path d="M632.672 1259.8s1.108 17.966 4.226 19.778 12.346 5.25 16.339 5 19.82-14.247 19.82-14.247zm93.34 17.813s-6.968 15.258-10.285 15.792-12.5.44-15.885-1.108-12.48-19.017-12.48-19.017zm51.173-9.291s-2.812 17.779-6.087 19.286-12.79 4.051-16.741 3.426-18.375-16.067-18.375-16.067z" fill="#020202"/><path d="M795.52 1075.253c2.529.754 5.142 5.618 3.437 8.076-5.166 9.142-74.424-10.439-76.488-10.948-3.351-.825-11.157-2.872-11.046-1.306.717 10.082 75.973 24.383 79.614 25.527s0 8.019-4.735 8.4-64.252-7.492-66.482-7.583-3.8 1.475-.949 2.724c8.113 3.593 57.835 16.193 60.762 18.513 2.14 1.7-1.827 7.231-4.2 7.528-8.547 1.069-61.677-12.3-66.468-12.693s-3.031 1.763 1.569 3.984c18.985 9.165 56.452 16.559 60.06 17.053s.382 4.762-1.246 5.93c-6.558 4.708-57.932-6.94-62.162-4.56-7.523 4.234 50.02 15.823 64.814 14.395.745-.071-.177 7.583-2.235 7.83s-53.854-8.052-77.615-20.518c-3.188-2.147-3.667-9.652 1.637-10.73s48.188 11.04 59.467 10.263-44.033-5.994-62.116-23.882c-2.72-2.094-.989-11.456 6.771-8.586 6.268 2.318 23.907 14.621 61.333 16.225 5.828.249-.587-2.014-3.187-2.639-24.71-5.942-55.239-16.037-55.667-24.942-.175-3.63.932-8.33 8.387-6.623 33.518 6.449 78.591 14.518 59.965 9.6-28.331-6.009-71.135-16.677-70.217-29.213.283-3.853 2.73-4.773 5.752-4.483s85.1 19.605 62.757 13.79c-53.324-13.881-62.626-33.733-65.136-36.9s4.072-3.672 6.472-2.071 5.6 5.4 17.411 11.8c28.607 14.559 67.215 25.279 69.745 26.033zm-171.993 141.205c9.415.6 64.66 39.155 159.492 13.082 12.937-3.557 8.47 13.3 4.108 14.287-100.632 22.7-159.43-14.08-162.437-18.779-3.142-4.908-3.159-8.716-1.163-8.59z" fill="#fff"/><path d="M1063.424 571.816s-68.57 46.31-155.57 62.31c0 0 125.4-68.82 137-73 3.03 1.64 15.48 8.65 18.57 10.69z" fill="#633b3b"/><path d="M1035.391 265.053c-2.5 3.572-4.078 19.3-5.668 31.967-.658 5.114-1.305 9.725-2.017 12.848-38.366 69.9-84.186 42.839-73.536 2.719 2.943-7.756 4.487-18.881 5.3-28.022.014-.177.027-.353.049-.531.752-8.726.83-15.5.83-15.5z" fill="#744747"/><path d="M1035.391 265.053a312.633 312.633 0 0 0-5.668 31.967c-34.319 16.327-75.8 16.389-75.8 16.389s.085-.287.248-.822c.9-3.168 6.18-44.051 6.18-44.051z" fill="#633b3b"/><path d="M1129.419 196.583c2.633 13.821-14.328 34.454-29.444 36.934-10.734 1.76-19.759-4.7-18.9-5.511-6.642 9.4-19.041 28.63-44.836 40.581-11.5 5.326-37.377 16.932-68.879 8-6.017-1.706-39.043-16.393-54.374-48.236-21.5-44.659 7.887-83.838 7.736-87.677-.815-20.705-1.817-36.6 15.577-58.562 43.522-60.649 96.193-40.9 99.96-40.217 6.625 1.213 68.755 13.6 81.41 66.4 9.248 38.587-25.512 78.069-20.216 74.586 13.613-8.948 28.575-1.181 31.966 13.702z" fill="#744747"/><path d="M975.556 186.181c3.39-4.222-8.068-23.184-16.448-21.953a7.978 7.978 0 0 0-6.041 5.59c-1 3.8 1.864 7.34 3.192 8.979 5.65 6.978 16.841 10.437 19.297 7.384zm117.397 3.019c-18.3-44.809-48.454-109.836-148.14-118.019 1.773.674 33.3-53.8 108.369-27.239 45.419 17.481 71.417 50.83 65.055 89.732-5.013 30.657-25.284 55.526-25.284 55.526z" fill="#633b3b"/><ellipse cx="1021.553" cy="188.428" fill="url(#c)" opacity=".61" rx="25.734" ry="25.524" transform="matrix(.16137991 -.98689236 .98689236 .16137991 670.735 1166.182)"/><path d="M939.509 174.3c3.853-10.611-.375-21.9-9.442-25.23-9.618-2.772-13.835 1.477-13.835 1.477a122.4 122.4 0 0 0-9.406 26.423s1.464 9.081 9.289 10.529c8.572 3.107 19.885-3.54 23.394-13.199z" fill="url(#d)" opacity=".61"/><path d="M930.924 132.809a9.428 9.428 0 1 0 10.839-7.859 9.467 9.467 0 0 0-10.839 7.859z" fill="#020202"/><ellipse cx="1014.034" cy="146.458" fill="#020202" rx="9.506" ry="9.428" transform="matrix(.16137991 -.98689236 .98689236 .16137991 705.849 1123.564)"/><path d="M996.785 200.306c1.121.382-21.824 18.867-36.335 16.635-15.038-2.312-28.165-26.3-30.142-30.078a.269.269 0 0 1 .108-.362.263.263 0 0 1 .178-.027c6.1 1.232 62.78 12.669 66.191 13.832z" fill="#fff"/><path d="M996.817 200.268c-.592-6.283-64.05-16.337-66.645-13.626" fill="#633b3b"/><path d="M924.21 107.626c-2.485 1.818-3.794 5.107 1.4 4.182 13.193-2.352 29.229-4.651 30.816-5.953 2.8-2.293-1.176-6.36-4.384-7.061-7.787-1.707-22.563 4.977-27.832 8.832zm122.426 24.337c1.646 2.62 1.654 6.176-2.841 3.382-11.427-7.1-30.885-17.658-31.885-19.464-1.762-3.179.117-9.224 6.627-7.813 7.809 1.692 24.61 18.339 28.099 23.895z" fill="#020202"/><path d="M981.371 13.334c.681-10.027 13.485-16.437 30.048 1.046 21.417-18.689 55.072-23.407 63.413 11.993 15.611-12.5 35.046.887 43.7 26.666 7.975-6.3 18.287 3.381 18.8 19.372 21.771 3.1 29.4 25.049 21.082 52.786 18.09 15-13.972 45.038-28.605 75.2.514-8.843-8.215-24.737-25.634-19.584a19.5 19.5 0 0 0-10.721 8c-9.492 14.41-12.933 22.316-12.933 22.316s-13.595-24.423 2.364-88.963C1076.8 88.341 981.2 39.352 938.426 78.73 931.334 75.954 964 1.879 981.371 13.334zm112.265 220.137c-5.406 9.655-14 14.594-24.939 10.017 4.439-5.332 9.319-11.143 12.375-15.83 3.135 3.795 7.602 5.242 12.564 5.813z" fill="#020202"/><path d="m705.854 552.126-49.31 18.23-69.69 24.77c-13 16-50 60-49 63s34 47 38 54 16 60 5 60c-10.79 0-20.61-18.27-20.99-18.98.22.91 7.99 41.98-4.01 48.98-8.89 5.19-17-13-17-13 9.93 30.44 3.65 39.42-4.34 35.93-4.08-1.78-8.62-6.83-11.66-13.93 1.94 16.13-5.28 19.77-12.53 16.3-3.99-1.91-7.99-5.98-10.47-11.3-1 7-11 5-23-10-15.25-19.063-22-33-25-39s-5.53-26.03-4-49a371.264 371.264 0 0 1 7-52c39-147 80.747-178.987 102-191 23-13 29.89-16.03 60.94-30.37.35-.16.68-.32 1.01-.46 5.71-2.64 15.16-1.42 15.16-1.42l33.61 15.1z" fill="#744747"/><g fill="#633b3b"><path d="M709.854 533.126s-1.27 5.92-4 19l-49.31 18.23c-40.32-84.77-38.75-125.6-38.75-125.6l16.17-1.88 23.57-2.75 10.04 17.85zm-199.53 294.3c-3.99-1.91-7.99-5.98-10.47-11.3 0 0-26.7-51.09-28-55-2-6-3.81-18.35-2.4-19.67s3.4 15.67 5.4 19.67c1.68 3.35 27.26 51 35.47 66.3zm24.19-2.37c-4.08-1.78-8.62-6.83-11.66-13.93 0 0-25-57-26-60-.71-2.12-4.43-16-2.21-16 .21 0 4.21 12 6.21 17 1.73 4.33 26.9 58.41 33.66 72.93zm-13.66-95.93c-1 1 0 6 2 14s16.577 47.805 16.577 47.805l1.423-5.805s-13.435-36.785-15-42c-3-10-4-15-5-14zm29.646-2.155s-3-11.98-2.823-14.412 8.792 5.215 8.792 5.215zm36.354-131.845s1-37 4-35 8.213 30.659 8.213 30.659z"/></g><path d="m866.388 333.3-41.57 218.25c-7.45 3.15-130.01 54.64-137.62 48.89a.673.673 0 0 1-.15-.14l-.12-.18c-4-8-77.07-152-69.07-157 22-12 158-74 203-94 5.82-2.587 20.95-8.627 45.53-15.82z" fill="#bdcfd6"/><path d="M845.854 415.126c-13.953 11.929-22 89-20.319 148.489 1.859 65.789 5.319 6.511 5.319 6.511-6.749-64.042 27.995-166.11 15-155zm218 139c19 32 61.732 64.1 81.554 54.648 23.015-10.978 20.446-109.648 20.446-109.648z" fill="#89989e"/><path d="M631.854 665.126s-80 32.553-87 37.277 1.128 20.276 59.064 0z" fill="#744747"/><path d="M1175.885 486.166a38.967 38.967 0 0 0-.421-4.14l-.03-.15c-4.83-30.93-43.22-61.63-82.41-63.28a72.157 72.157 0 0 0-23.77 2.85 67.058 67.058 0 0 0-7.4 2.68c-6.64 2.6-23.41 12.1-41.17 22.61-19.36 11.46-50.919 36.13-60.83 42.39-58 21-84 35-215.8 109.63-15.677 8.876-43.777 24.235-69.059 38.6-35.323 14.234-92.881 41.091-121.142 88.767-2.79 3.85-18.2 83.12-12 85 .94.29 12 9 23.9-30.62-3.259 13.14-8.84 54.29-5.74 54.38 8.54.59 14.67-3.42 19.1-9.28 3.83-5.08 6.381-11.56 8.09-17.6.67-2.4 1.21-4.73 1.65-6.88 0 11-5.129 33.97-1.56 34.43 8.73.19 14.75-4.61 19.06-11.48v-.01c8.8-14.02 10.47-36.65 13.5-42.94-1 13-6.27 47.42-.84 48 27.84 3 29.84-65 41.56-74.89 41.28-24.11 63.28-45.11 74.28-71.11 45-16 219-51 294-103 10.58-4.39 45.81-27.79 67.46-38.24 17.241-8.32 32.85-16.04 38.63-19.13 22.26-11.9 35.77-22.29 40.31-30.46.131-.22.25-.45.36-.67.08-.17.16-.33.24-.5.02-.2.031-.4.031-.6.009-.01.009-.01.009-.02a36.753 36.753 0 0 0-.008-4.337z" fill="#744747"/><path d="M625.364 741.456c-1.49 3.32-5.51 39.67-5.51 39.67-3.03 6.29-4.7 28.92-13.5 42.94.19-1.08 13.51-77.97 14.93-82.61 1.42-4.68 8.57-13.33 9.43-12.73s-3.86 9.4-5.35 12.73zm-17.7-15.84s-5.81 10.51-7.81 13.51-11 62-11 62l-1.65 6.88c-1.71 6.04-4.26 12.52-8.09 17.6l-.01-.01s15.75-84.47 16.98-88.36 11.58-11.62 11.58-11.62zm-36.682 9.51c-.128 2-12.474 63.228-12.475 63.235-2.648 8.752-17.606 23.719-17.187-.319.583-4.739 7.742-62.329 12.535-71.916 5-10 45.213-48.127 45.213-48.127s-41.787 34.114-48 47.621-12.213 70.506-12.213 70.506c-1.268 12.355 3.006 18.374 5 19 7.063 2.215 18.629-11.457 19.951-25.047s8.59-52.953 10.32-54.953 9.729-15 9.729-16-12.745 14-12.873 16zm391.872-196c-3.162 6.325-7 21 15 25s-11.234-6.74-11.617-14.37-1.383-14.63-3.383-10.63z" fill="#633b3b"/><path d="m563.117 693.836 8.063 11.296 2.44-4.155-8.536-7.996zm612.768-207.67c.019.66.009 1.31-.031 1.96 0 0-.2 1.67-.6 4.17-4.54 8.17-18.05 18.561-40.31 30.46-5.78 3.09-21.389 10.811-38.63 19.13-27.19-57.83-69.219-90.42-75.63-95.15 17.76-10.51 34.53-20.01 41.17-22.61a67.058 67.058 0 0 1 7.4-2.68 72.157 72.157 0 0 1 23.77-2.85c39.29 11.761 77.821 38.36 82.41 63.28l.03.15a26.781 26.781 0 0 1 .421 4.14z" fill="#633b3b"/><path d="M1019.854 447.126c48 10 129 122 126 161.4 47-35 88-162.4 77.245-216.4-3.245-13-37.245-77-83.245-54-52 30-120 109-120 109z" fill="#bdcfd6"/><path d="M1144.854 609.126c43-26 73-88 68-88a452.856 452.856 0 0 1-58 79zm-125-162s81-73 77-85c-3.225-9.675-11.314 6.04-22 21-15 21-55 64-55 64z" fill="#89989e"/></svg></g><g transform="translate(1970.3999999999999 391.2) rotate(0.0 490.80000000000007 893.4) scale(0.8307379823967503 0.8309924658171334)"><svg width="1181.6" height="2150.2" viewBox="0 0 1181.6 2150.2"><linearGradient id="e" gradientTransform="matrix(-1.0893 .1199 -.12 -1.0903 -17471.1113 5096.9761)" gradientUnits="userSpaceOnUse" x1="-17000.676" x2="-16953.981" y1="2641.729" y2="2641.729"><stop offset=".382" stop-color="#f89578"/><stop offset=".994" stop-color="#fdb899"/></linearGradient><linearGradient id="f" gradientTransform="matrix(1.0069 .02000064 -.02860117 1.0746 -10618.834 -5153.8472)" gradientUnits="userSpaceOnUse" x1="11264.4" x2="11295.041" y1="4761.946" y2="4761.946"><stop offset=".197" stop-color="#fdb899"/><stop offset=".724" stop-color="#f89578"/></linearGradient><path d="m749.7 234.7 6.2 85.2c-3 38.2-65.4 35.9-68.5 11.5l-5.9-60.5c32.9-8.7 37.9-7.3 68.2-36.2z" fill="#fdb99a"/><path d="m750.2 241-.3-1.3c-17.1 17.4-36.4 25.4-59.8 29.1-2.8.4-5.7.8-8.6 1.1l.2 1.1 4.5 47.5c13.3 7.6 50.6-15.7 67.1-37.1z" fill="#f89578"/><path d="M802.3 131.7c27-.1 25.3 44.1 2.3 59.8-9.1 6.2-25 1-24.2.1-5.2 10.2-24.9 50.7-48.9 66.4-10.7 7-34.4 20.7-67.4 17.1-6.3-.7-37-4.1-57.7-32.4-25.5-34.8-13-79.6-11.6-83.2-2.8-7.9-16.3-42.2.5-75.4 26.3-52.1 96-47.1 99.9-47 6.8.1 59.4 1.3 80.5 50.5 15.4 36 1.5 76.1 3.6 70.2 4.1-11.8 6.8-26.1 23-26.1z" fill="#fdb99a"/><path d="M659.9 195.2c2.7-4.6-11.8-21.2-20-18.7-2.8 1-4.8 3.5-5.2 6.4-.4 3.9 3 6.8 4.6 8.2 6.9 5.9 18.6 7.4 20.6 4.1zm118.8-35.6c-25.4-40.5-67.6-78.4-186.2-69.1 1.9-.2 9.9-70.2 114.8-53.6 38.3 5.2 75.2 32.3 76.2 81.7.7 30.7-4.8 41-4.8 41z" fill="#f89578"/><path d="M635.3 214.4c1.9-2.9 13.8-.8 41.4-9 1.5-.5 3.1 1.9-13.7 8-16 5.9-29.2 3.5-27.7 1z" fill="#fa8e79"/><ellipse cx="687" cy="147.8" fill="#020202" rx="9.6" ry="9.3" transform="matrix(.9851 -.172 .172 .9851 -15.1886 120.3795)"/><ellipse cx="612.9" cy="155.4" fill="#020202" rx="9.6" ry="9.3" transform="matrix(.9851 -.1718 .1718 .9851 -17.5771 107.604)"/><path d="M576.6 56.4c-4.2 24.5 8 68.6 10 68.5.1 0 .2-.1.3-.2 1-21.6 16.5-51.6 16.5-51.6.7 2.8 39.5 32.5 74 1.1-15.8 3.2-34 1-39-12.8 35.1-2.3 64.6-.2 73.9 30.8 5.3-6.6 6.3-16.3-1.2-28.4 22.6 6.6 29.5 11.5 37.5 36 6.1-9.7 6.8-21.7 4.2-31 22.8 19.3 7.7 58 25 95.4 4.2-23.2 21.3-37.5 36.5-28.5 0 0 4.4-54.3 3.1-69.5-1.3-9.5-2.5-28.9-19.9-40.1-36.2-23.1-76.2-23-91.3-22.9-65.9.2-125.4 28.7-129.6 53.2z" fill="#582c0d"/><path d="M788.2 39.5c1.2 0 12.3-20.9-6.7-32C769.7.6 748-1.6 731.4 1.2c-7.3 1.2-14.4 3.6-13.8 4.6 1 1.8 24.4-4.4 43.2.8 10.4 2.7 19.1 9.6 24.1 19.2 4.5 8.1 2.7 13.7 3.3 13.7z" fill="#582c0d"/><path d="M818.3 42.7c1.1-.5 1.1-24-21.2-25.3-13.8-.8-34.4 6.9-47.8 16.7-5.9 4.3-11.2 9.6-10.2 10.2 1.7 1.1 19.7-14.8 39.1-18.5 10.6-2.3 21.8 0 30.7 6.2 7.8 5.2 8.9 11 9.4 10.7zm-158.6 81.1c-2 2.3-3.2 10.2 6 7.6 41.5-11.6 62.8-9 57.3-12.7-12-7.9-51.3-9.1-63.3 5.1zm-33.4 5.5c1.6 1.3 3.8 6.9-1.9 6.6-25.9-1-38.3 4.2-35.9.6 5.2-8 28.1-15.4 37.8-7.2z" fill="#582c0d"/><path d="M308.5 1118s176.9 173.8 226.5 171.1l-53.5-254.7zm366.2 236.7s202.1 50.7 248.4 37.2l-116.7-162.4-130 106z" fill="#cd3f44"/><path d="M765.5 1031.5s-114 79.3-221 149.2c-28.8 18.8-57.1 36.9-82.5 52.7-24.5 15.1-46.3 28-63.5 37.2 0 12 3 65-4 149-4.8 57.1-31 224-35 266l-92-37.3s-35-350.7-37-396.7c-1.9-42.7-7.8-84.9 70.8-139l1.2-.9c5.8-4 12.1-8 18.9-12.1 33-20 226.7-174 261-166 77.3 17.9 183.1 97.9 183.1 97.9z" fill="#fdb99a"/><path d="M551.5 1118s-1.6 29.6-7 62.6c-28.8 18.8-57.1 36.9-82.5 52.7-72.1-117-151.6-120.8-160.6-120.8h-.8l2.1-.9 131.9-54.4z" fill="#f58f73"/><path d="M400.9 1311.1c.1 3.7.1 7.5.1 11.4 0 3.5 0 7-.1 10.5-1.8 135.7-38.3 352-38.3 352l-105.4-11.5s1.6-45.5.4-52.1c-1.6-8.1-21.3-206.8-27.7-311.8-.2-3.8-.4-7.4-.6-11-.3-5.4-.5-10.4-.7-15.1-.2-3.8-.3-7.4-.4-10.7-.1-.2-.1-.3-.1-.4-4.5-13.2.1-24.3 1.4-24 7.6 1.7 71 42 169 31 1.7-.2 5.9 9.7 2.3 21.2 0 .2-.1.4-.2.5.1 3.4.2 6.7.3 10z" fill="#d6d6d6"/><circle cx="176.4" cy="1957" fill="#fff" r="161.5"/><path d="M339.4 1970.6c-7.5 89.8-86.6 156.9-176.4 149.4S6.1 2033.4 13.5 1943.5s86.6-156.9 176.4-149.4 156.9 86.6 149.5 176.5zm-322-26.7c-7.3 87.7 58.1 164.9 145.8 172.2s164.9-58.1 172.2-145.8-58.1-164.9-145.8-172.2-164.9 58.1-172.2 145.8z" fill="#ecefe8"/><path d="M80.6 1827.8c58.1-3.9 121.1 25.1 163.3 81 40.9 54.3 51.9 120.4 34.5 174.3 21.5-17.4 38.2-39.9 48.7-65.4 1.7-4.2 9.3-24.6 11.2-47.2 7.4-88.9-58.7-166.9-147.6-174.3-39.3-3.3-78.5 7.9-110.1 31.6z" fill="#ecefe8"/><path d="M270.2 1847.5c-13.6 4.9-26.6 11.4-38.7 19.4-22.5-11.9-46.4-20.9-71.1-26.7-9-16-19.2-30.9-29.4-40-23.7 6.9-45.6 19-63.9 35.5-2.9 15.6-4.5 32.6-7.4 48.1-19.7 17.3-35.9 48.1-39.9 61.5l-6.4.7c-2.8 36.6 8.2 73.9 26.9 101.5-1.1-13.8-.9-27.6.8-41.3 16 8.4 31.9 14.3 47.7 13.4 13.5 20.5 27.9 38.6 43.5 53.5-2.4 12.9-3.5 25.8-2.4 38.6 1.3.4 2.7.8 4 1.2-2.9-11.7-1.4-24.7 2.2-38.5 23.3-6.2 43.4-10.9 63.6-21 13.1 10.1 31.1 14.7 53.6 16.5-5.8 19.4-6.5 26.6-8.2 33.5 34.5-16.2 62.1-44 78.2-78.5-3.3-3.6-7.3-6.7-11.6-9 .5-23.7-1-45.5-6.5-63.5 6.7-14.3 11.2-29.5 13.2-45.2l14.5 9.1c-.4-1.5-.8-3.1-1.3-4.6l-12-8.1c-10.1-21.6-30.3-43.2-44.7-56.2-8.7-13.5-15.4-25.1-23-35.2-1.6-.9-4.2-2.1-5.8-2.9 12.4 16.2 19.7 29.3 24.1 38.2zM42 2002.1c-11.3-16.4-19.5-51.8-18.2-56.3.8-10.1 18.1-42.1 37.1-58.9 15.7 3.7 31.6 6.7 47.6 8.8-2.9 27.4 5.5 55.7 15 68.5l-34.6 50.9c-7.7 3.7-32.2-2.4-46.9-13zm259.6-48.3c5.7 16.1 7.3 37.6 6.8 61.9-10.4 6.6-31.7 28-53.3 51.1-21.7-1.6-40.9-5.7-54-16.1 1.4-21.6-1.3-44.6-6.5-68.3 20.1-11.4 38.1-27.3 54.3-46.4 12.3 6.7 38.4 16.2 52.7 17.8zm-54.5-20.3c-16.6 19.6-34.8 35.2-55.1 45.9l-65.6-16.2c-11.9-19.4-15.6-43-13.5-67.9l46.6-51.3c24.5 5.6 48.1 14.6 70.2 26.5 8 23.5 14.4 45.2 17.4 63z" fill="#4f4f4f"/><path d="m265.7 1832.8-.7 4.9c2.1 3.7 3.7 6.8 5.2 9.8-2.5.9-5 1.9-7.5 2.9-8.4 27.8-12.5 56.4-13.3 85.8 12.5 6.8 38 16.1 52.2 17.6 5.7 16.1 7.3 37.6 6.8 61.9-10.4 6.6-31.7 28-53.3 51.1-21.7-1.6-40.9-5.7-54-16.1 1.4-21.6-1.3-44.6-6.5-68.3 10.2-5.9 19.9-12.7 28.8-20.5l-1.5-2.9c-9.2 7.9-19.3 14.8-30 20.5l-44.8-11.1c-14.5 26-26.7 53.3-36.3 81.5 6.6 8.2 13.8 15.9 21.3 23.2-2.4 12.9-3.8 27.8-2.6 40.6 1.3.4 3.6 1 4.9 1.4-2.9-11.7-2-27 1.5-40.7 23.3-6.2 43.4-10.9 63.6-21 13.1 10.1 31.1 14.7 53.6 16.5-5.8 19.4-7.6 29.3-9.3 36.2 35-15.1 64.9-45.3 80.9-80.1-3.9-4-8.4-7.5-13.3-10.1.5-23.7-1-45.5-6.5-63.5 6.7-14.3 11.2-29.5 13.2-45.2l17 10.8c-.4-1.5-1-3.9-1.5-5.5l-14.3-9c-10.1-21.6-30.3-43.2-44.7-56.2-3.2-5.3-5.9-10.2-8.9-14.5zm-220 171.8-8.4-.8s-.2 19.6 0 35.2c.6 1.9 1.8 6.6 3 8.5-1.1-13.8-.9-27.6.8-41.3 15.7 8.3 31.3 14.1 46.7 13.4l-1.4-3.8c-8.7 1.7-27.3-3.1-40.7-11.2z"/><g fill="#020202"><path d="M389.5 1691.5c.1 7.5-19 31-19 31s4 102-20 120c-11.9 8.9-35.8 6.1-82-13-29-12-47-28-88-28-84 0-161.4-44.4-177-60-7.2-14-4.1-32.6 18.2-41.2 44.2 4.2 168.2 21 216.8-24.8 8-17-2.6-46 7-51 21.4-11.1 99.8 43.4 95.7 49 .6-1.8 48-.5 48.3 18z"/><path d="M241.5 1812.5s0 18 3 20 12 6 16 6 20.7-13 20.7-13zm87.5 30.9s-10.3 13.2-13.6 13-12.3-2.4-15.2-4.7-7.8-21.4-7.8-21.4zm-259.2-68.3s1.7 17.9 4.8 19.6 12.5 4.9 16.5 4.5 19.4-14.8 19.4-14.8zm90 22.7s-9 14.1-12.4 14.2-12.4-1.3-15.6-3.3-9.7-20.6-9.7-20.6zM57 1770.9s-11.9 11.9-15.2 11.2-11.9-4-14.5-6.6-5-22.2-5-22.2z"/></g><path d="M235.9 1677c1.1-7.7 63.8 15.8 52.7 34.8-1.5 2.6-2.5 2.7-5.8 2.1-4.2-.8-47.8-26.2-56.6-25.5 0 0 37.2 23.5 39.5 34.7.7 3.4-1.2 8.1-5 12-4 4.2-53.8-37.6-63-33.2 0 0 36.3 15.6 26.7 40.5-1.3 3.4-6.6 8.2-9.4 4.7-34.5-42.3-48.6-38.7-48.6-38.7s22.8 25.3 19 40.5c-1.7 6.8-8.7 9.9-10.5 8.4-9.5-8.5-32.8-45.5-36.9-44.4 0 0 17.4 23.4 9.3 42-1.7 3.8-3.4 5-4.5 3.6-14.2-19.1-20.1-35.4-48.9-52.6 1.6-3.6 8.4-4.6 12.4-2.6 2.9 1.4 16.1 8.1 36.8 43.3 4.2-11.3-8.8-28.4-23.9-40.2-1.9-1.4 6.2-5.1 13.2-3.1 10.5 3 50.6 45.3 45.9 46.2 9.9-13.8-16-33.8-27.4-44.1-.9-.8 3.5-5.1 11.5-4.1 18 2.3 56.9 31 53.4 36.8 2.1-18.4.1-22.7-29.3-37.9-2.4-1.2 1.9-4.9 8.9-4.9 14.3.5 60.9 27.9 59 30.1 9.3-10.1-23.2-25.5-41-34.1-.5-.2 1-7 10-8 26.7-3.1 57.5 21.3 57.5 21.3 3.8-4.3-16.4-16.7-45-27.6zm-222.4 48.5c7-3.5 59 39 113 52 39.5 9.5 75.8 1.8 102.4 7.4s87.8 34.4 113.6 37.6c8 1-3.7 18-11 16s-92-37-111-43c-14.8-4.7-84.2-4.8-96-8-58.7-15.7-110-45.3-112-47s-3-13 1-15z" fill="#fff"/><path d="M398.5 1270.5s-26-34-22-37 35.2 29.9 35.2 29.9z" fill="#f58f73"/><path d="M400.9 1311.1c-18.9 3.6-96.6 14.7-172.3-27.6-.2-3.8-.3-7.4-.4-10.7-.1-.2-.1-.3-.1-.4 16.2 8.5 92.1 45.1 172.8 28.3 0 .2-.1.4-.2.5 0 3.3.1 6.6.2 9.9z" fill="#f7f7f7"/><path d="M401 1322.5c0 3.5 0 7-.1 10.5-22.4 4.6-96.9 15.4-171-23.4-.2-3.8-.4-7.4-.6-11 15.9 7.9 91.9 42.1 171.7 23.9z" fill="#f7f7f7"/><path d="M935.7 1118s-13.5 120.9-23.1 219.4c-2.6 26.6-4.9 51.5-6.6 72-1.9 23.1-3 40.5-2.9 48.4 3.8 203.1-45.7 486-45.7 486l-83.5-5.2s-40.8-317.2-38.9-472.5c.4-34.3-1.9-73.1-5.5-111.4-1.6-16.9-3.4-33.8-5.4-50.1-10.4-85.9-24.5-158.6-24.5-158.6z" fill="#fbb798"/><path d="M864.1 1480.9c18.2-11.8-9.3 31.5-50 31-32.1-.4-60.4-42.1-41.5-29.1 25.6 17.6 48.7 25.8 91.5-1.9zm48.4-143.4c-2.6 26.6-4.9 51.5-6.6 72-36.6-16-176.4-54.7-176.4-54.7-1.6-16.9-3.4-33.8-5.4-50.1z" fill="#f58f73"/><path d="M903.5 1545.5c-.1 3.3-.3 6.8-.5 10.6-.2 5-.5 10.4-.9 16.1-.2 3.5-.4 7-.7 10.7-6.2 97.7-30 338.6-30 338.6h-106s-25.1-243.5-31.2-343.4c-.2-3.8-.5-7.5-.6-11-.3-5.6-.6-10.8-.8-15.6-.2-4-.3-7.6-.4-11-4-9-1.6-25.6 0-25 70 27 149 15 172 4 1.8-.9 4.1 13-.9 26z" fill="#d6d6d6"/><path d="M751.3 1997.6c3.1-6.4 5.8-17 4.3-26.6-12.7-83.3-12.6-78.3-8.1-80.6s16-6.7 18.9.9c3.4 8.9 6 17.2 6 17.2 13.9-38.7 68.1-36.2 88 0 0 0 3.2-5.4 6.2-12.3s21.8-2.6 21 1c3.3 7.8-9.9 61.6-11.4 80.3-.8 8.5-.2 17 1.6 25.3 4.5 16.8 18.4 41.1 27.5 71.8 1.7 5.7 4.2 37-6.2 44.4-32.3 22.9-134.5 24.4-173.9-1.6-9.2-6.1-10.9-30.8-6.9-46.8 4.4-17.1 20.2-45.1 33-73z" fill="#020202"/><path d="M741.3 2121.1s2.2 17.9 5.5 19.5 12.7 4.5 16.6 4 18.9-15.5 18.9-15.5zm94.3 11.9s-6 15.7-9.3 16.4-12.4 1.2-15.9-.1-13.7-18.2-13.7-18.2zm50.5-12.5s-1.7 17.9-4.9 19.6-12.5 4.9-16.5 4.5-19.4-14.9-19.4-14.9z" fill="#020202"/><path d="M861.3 1918.9c2.6-.1 6.7 3.7 5.8 6.6-2 10.3-73.9 13.9-76 14.1-3.4.3-11.5.8-10.9 2.3 3.9 9.3 79.8-1.2 83.6-1.3s2.6 7.6-1.8 9.5-63.3 13.4-65.4 14.1-3.1 2.6 0 2.9c8.8.8 60-3.2 63.5-1.9 2.6.9.6 7.4-1.6 8.5-7.8 3.7-62.4 8.1-67 9.2s-2.3 2.6 2.8 3.3c20.9 2.6 58.8-2.4 62.4-3s1.9 4.4.7 6c-4.7 6.6-58 10.7-61.2 14.4-5.8 6.4 53.3.2 66.9-5.9.7-.3 3.3 6.1 1.4 7s-53.1 12.4-80 5c-3.7-1-5.7-7.3-1-10s47.2-4.1 57.6-8.4-43.6 8.4-66.5-2.8c-3.2-1.1-4.6-10.5 3.7-10.3 6.7.2 27.3 6.2 63.3-4.2 5.6-1.6-1.2-1.7-3.9-1.5-25.3 2.3-57.5 2.5-60.7-5.8-1.3-3.4-1.8-8.2 5.8-9 33.8-4.6 79.1-11.4 59.9-10.1-28.8 3.4-72.7 6.9-75.9-5.2-1-3.7 1.1-5.4 4-6.1s86.9-8.6 63.9-7c-55 3.9-70.1-11.9-73.5-14.1s2.7-4.8 5.5-4 7 3.3 20.3 5.6c31.7 4.4 71.7 2.2 74.3 2.1zm-131.8 159.6c9.4 0 67 35 160 3 12.7-4.4 9.3 12.7 5 14-99 29-160-4-163.3-8.5-3.5-4.7-3.7-8.5-1.7-8.5z" fill="#fff"/><path d="M903.5 1545.5c-.1 3.3-.3 6.8-.5 10.6 0 0-65.7 19.5-170.1-4.6-.2-4-.3-7.6-.4-11-.2-5.1 78 26 171 5zm-1.4 26.7c-.2 3.5-.4 7-.7 10.7-11.2 2.9-73.5 16.5-167.2-4.8-.2-3.8-.5-7.5-.6-11 8.9 2.7 82 24.1 168.5 5.1z" fill="#f7f7f7"/><path d="M932.8 1289.2c-.2 5.6-.2 10.9.1 15.9 2.5 43.4-5.5 87.4-9.8 86.9-18.7-6.5-212.2-48.2-243.9-37.8s1.2-104.6 3.2-196.6c-1.7 1.2-105.6 78.7-134.3 122.6-1 1.5-1.9 2.9-2.7 4.4-.2.3-.3.5-.5.8-24.9 39.5-98.5-191.7-244.5-172.8 15.4-19.3 158.8-126.6 257-204.6 4.4-3.5 8.6-6.9 12.8-10.2 5.8-4.6 11.2-9 16.3-13.3 86.3-72 367.2 11.8 378 22 0 0 5.2 12.2 8.9 37.6 3.9 26.9 6.1 68.6-1.3 126.1-9 68.5-37.2 158.5-39.3 219z" fill="#fd4e56"/><path d="M682.5 1157.5c-1.7 1.3-105.6 78.7-134.3 122.6 36.2-58.2 93.7-109.2 110.3-132.6 17-24 32-112 36.8-113s-12.8 123-12.8 123z" fill="#cd3f44"/><path d="M972 1070.2c-8.9 68.6-37.1 158.6-39.2 219-10.6-46.3-3.4-114.7 15.9-161s6.7-55.7 6.7-55.7c-127 28-253-79-293-116-39.7-36.7-104.1-48.3-105.1-48.5l64.7-17.7L973.3 944c3.9 27 6.1 68.6-1.3 126.2z" fill="#cd3f44"/><path d="M1015.5 866.4c-20.5 19.9-39.2 12.1-52.3 16.1-11.6 3.6-41.9 41-51.9 32.4-6.2-5.3 29.9-49.6 29.9-49.6s-14.5-1.1-20.2.9c-.2.1-.4.2-.5.2h-.1c-.5.2-.9.5-1.2.8-4.8 5.4-41.3 44.4-44.2 20.1-1.9.5-3.9.7-5.9.5-5.1-.5-10.8-4-4.7-19.3 9.8-24.5 30-40.4 32.7-41.8 5.2-2.7 30.6-12.2 30.6-12.2s-17.2-5.1-26.7-6c-.9-.1-1.7-.1-2.6-.1h-.1c-.7 0-1.4.1-2.2.3-5.8 1.8-37 36.3-45.1 28.3-5.2-5.1 28.4-51.3 40-54.8 6.6-2 29.5 2.3 48.9 6.1 14.8 2.9 27.5 5.4 29.2 4.6 8-4.1 17.8-16.2 28.3-32.4 21.1-32.5 48.3-91 66.1-123.8l-40.7-41.4-65.5-66.7 100.9-67.8s35.5 31 68.4 66.1c11.2 11.9 22 24.4 31.1 36.2 13.6 17.8 23.1 34.2 23.6 46 3.7 73.7-147.2 234.6-165.8 257.3z" fill="#fdb99a"/><path d="M940.1 788.4c1 .4 26.6 13.5 34.1 11 9.6-3.3 23.4-38.8 23.4-38.8-10.5 16.2-20.3 28.3-28.3 32.4-1.8.8-14.4-1.8-29.2-4.6zm-39 20.3c9.5.9 26.7 6 26.7 6s12.6-3.7 12.5-4.7c-.4-3-29.5-.9-39.2-1.3zm-32 79.2c2 .1 4 0 5.9-.5 0 0 21.8-30.8 31.6-37.9s42.5-11.5 42.1-14.5-36.8 4-45.2 9.1c-5.3 3.3-26.9 33.2-34.4 43.8zm51.9-21.7c5.7-2 20.1-.9 20.1-.9 5.8-5.8 20.7-12.8 17.9-13.5-2.5-.6-33.4 12.4-38 14.4zm236.9-303.1c-21.5 43.7-94.2 73.6-94.2 73.6l-42.3-38.2 1.6-3.2 46.4-90.8s30.3 11.8 57.4 22.4c11.2 11.9 22.1 24.4 31.1 36.2z" fill="#f89578"/><path d="M552 901.4c-11.5-1.9-29.2-16-49.5-44.1-15.5-21.4-104-124.2-126.5-177.2-10.8-25.4-9.4-48.1-3.9-60.9 2.6-6.1 6.5-13.7 11.1-22.2 7.6-13.9 17.5-30.5 28.3-47.9 36.4-58.8 82.5-125.9 82.5-125.9l83 102.3-82.8 110.6-5.8 7.7c1.4 5 4 12 7.4 20.5 14.3 35.2 43.2 94.5 64.1 129.1 5.9 9.7 11.1 17.5 15.2 22.2 2.7 20.1-12.6 87.5-23.1 85.8z" fill="#fdb99a"/><path d="M495.9 664.2s-69.7-11.8-112.6-67.3c7.6-13.9 17.5-30.5 28.3-47.9 33-9.8 76.9-10.7 76.9-10.7l5.7 97.6z" fill="#f89578"/><path d="M1022.5 664.5c-5.5.3-78.7-96.9-81-99.9v-.1c2.5 17.6 4.2 33.9 5.5 49.1 5.4 65.5 1.3 111 3.4 153.8v.5c.1 23.9 19.8 105.3 29.6 169.7 1.9 12.7 3.5 24.8 4.4 35.6 1.8 20.6 1.3 36.7-2.9 44.3-4.6 8.3-118.7 14.4-246-47-145-70-180.7-61.6-170-83 8.2-16.5 13-27 20.2-72.1 3.2-27 3.7-186.8-11.2-232.9 0 0-45.1 78.8-56.5 89.8-.4.5-1 .9-1.5 1.2-124.9-59.2-140-106.1-140-106.2 57.6-94.8 150.9-209.1 187-228.8 16.5-9 90.2-36.6 120.7-41.1.3 4.1 1.3 16.1 3.3 32.1 4.9 18.8 73 10 66.4-39 33-1.5 142.9 10.7 176.8 29.1 88.9 48.3 223.2 210.3 223.2 210.3 7.4 17-106.5 133.4-131.4 134.6z" fill="#bdcfd6"/><path d="M946.9 613.5c-11.3 24.3-29.8 82.7-32.5 75.9-2-5 23-96 3-135.1-40.7-65.2-50.9-181.8-43-194 6.7-10.3-4.6 107.5 66.9 204.2 2.6 17.5 4.4 33.8 5.6 49zM518 672.3c32.3-66.1 41.7-101.7 40.5-115.3-6-65.5 0-133.3 8.1-146.1 6.5-10.3-1 7.8-1.1 61.1 0 24 0 65.5 9 110.5 0 0-45.1 78.7-56.5 89.8zm466.4 300.8c-49.3 29.7-131.1-38.8-159.9-57.7-30-19.6-92.2-36.9-43.2-27.3S871 935.3 919 943.8c39.7 7.1 56.3-2.6 60.9-6.2 2 12.7 3.5 24.7 4.5 35.5z" fill="#89989e"/><path d="M851.1 837.1c8.1 8 39.3-26.5 45.1-28.3.7-.2 1.4-.3 2.2-.3h.1c.9 0 1.8 0 2.6.1 9.5.9 26.7 6 26.7 6s-25.5 9.5-30.6 12.2c-2.7 1.4-22.9 17.2-32.7 41.7-6.1 15.3-.5 18.8 4.7 19.3 2 .1 4 0 5.9-.5 2.9 24.3 39.4-14.7 44.2-20.1.3-.4.8-.6 1.2-.8h.1c.1 0 .2-.1.5-.2 5.7-2 20.1-.9 20.1-.9s-36 44.3-29.9 49.6c10 8.6 40.2-28.8 51.9-32.4 13.1-4 31.8 3.8 52.3-16.1 18.6-22.7 169.5-183.6 166.1-257.2-2-42.7-123 37.1-125.8 42.5-17.3 33.5-40 80.8-58.2 108.8-10.5 16.2-20.3 28.3-28.3 32.4-1.7.9-14.4-1.7-29.2-4.5-19.4-3.8-42.3-8.1-48.9-6.1-11.7 3.5-45.3 49.7-40.1 54.8z" fill="#fdb99a"/><path d="M940.1 788.4c1 .4 26.6 13.5 34.1 11 9.6-3.3 23.4-38.8 23.4-38.8-10.5 16.2-20.3 28.3-28.3 32.4-1.8.8-14.4-1.8-29.2-4.6zm-39 20.3c9.5.9 26.7 6 26.7 6s12.6-3.7 12.5-4.7c-.4-3-29.5-.9-39.2-1.3zm-32 79.2c2 .1 4 0 5.9-.5 0 0 21.8-30.8 31.6-37.9s42.5-11.5 42.1-14.5-36.8 4-45.2 9.1c-5.3 3.3-26.9 33.2-34.4 43.8zm51.9-21.7c5.7-2 20.1-.9 20.1-.9 5.8-5.8 20.7-12.8 17.9-13.5-2.5-.6-33.4 12.4-38 14.4z" fill="#f89578"/><path d="M630.2 876c-2.6 0-5.2-.4-7.7-1.1 0 0 8.5 12.9.8 16.4-5.4 2.5-13.7 1-22-1.8-12.1-4-24-10.8-26.8-12.1h-.1c0 .3 31.7 20.5 25.6 31.3-3 5.4-11.2 5.9-18.9 5-5.7-.7-11.2-2-16.6-3.7-21.8 14.3-39.6-20.5-57.6-52.6s44.9-71.6 60.5-46.3c7.8-10.5 14.2-28.3 38.7-14 22 12.9 33.3 28.3 26.8 31.5-2.4 1.2-5.7 1.1-9.3.2l-.3-.1c-.7-.2-1.4-.3-2.1-.6h-.1c-10.9-3.4-24.2-12-29.1-13 9.1 10.9 40.7 34.2 48.3 48.2 3.6 6.9-.8 12.7-10.1 12.7z" fill="#fdb99a"/><path d="M569.5 808.1s-9 6.4-9.2 17c-6.9 3.3-9 11.7-8.9 17.3-7 5-8 10-8.2 17-5.8 4-7.6 16.4-8.4 17.5-5.9 7.7 13.6-57.6 27.5-79.8zm54 20.8-.3-.1-2.1-.6h-.1c-10.9-3.4-24.2-12-29.1-13 0 0-4.5-3.7-16.7.3-8.2 2.7 3.3-8 13.3-7 9.8.9 34.2 19.8 35 20.4zm6.7 47.1c-2.6 0-5.2-.4-7.7-1.1 0 0-36.1-31.6-41.6-33s-26.6 4-23.5 2.3 19.7-10.1 25.4-9.4 47.4 41.2 47.4 41.2zm-28.9 13.6c-12.1-4-24-10.8-26.8-12.1h-.1c-.9-.5-8.7-4.4-10.7-5.7-2.2-1.3-12 1-12.2-.3s9-5 15-5c3.1 0 34.8 23.1 34.8 23.1zM581 913.8c-5.7-.7-11.2-2-16.7-3.7 0 0-15.8-11.6-13.9-12.6s30.6 16.3 30.6 16.3z" fill="#f89578"/><path d="M703 156.4c14-1.5 26.7 8.6 28.2 22.7s-8.6 26.7-22.6 28.3c-14 1.5-26.7-8.6-28.2-22.7s8.6-26.8 22.6-28.3z" fill="url(#e)"/><path d="M622.8 190.3c.9-11.2-6.2-20.9-15.9-21.7-10-.1-13 5.1-13 5.1-1.8 9.5-2.4 18.7-2 27.8 0 0 3.8 8.3 11.8 7.6 9.2.8 18.3-8.6 19.1-18.8z" fill="url(#f)"/></svg></g></svg>