<svg xmlns="http://www.w3.org/2000/svg" viewBox="0 0 3000 2625" width="3000" height="2625"><g transform="translate(123.75 142.5) rotate(0.0 1377.1875 1175.625) translate(0.0 0.0) scale(3.9126478940063953 3.91875)"><svg width="703.967" height="595.694" viewBox="0 0 703.967 595.694"><linearGradient id="a"><stop offset="0" stop-color="#c0ddfc"/><stop offset=".19" stop-color="#d3e7fd"/><stop offset=".49" stop-color="#ebf4fe"/><stop offset=".77" stop-color="#fafcff"/><stop offset="1" stop-color="#fff"/></linearGradient><linearGradient xmlns:xlink="http://www.w3.org/1999/xlink" id="b" gradientTransform="matrix(1 0 0 -1 3354.22 8026.1353)" gradientUnits="userSpaceOnUse" x1="-3143.837" x2="-3289.579" xlink:href="#a" y1="7609.56" y2="7430.694"/><linearGradient id="c" gradientTransform="matrix(-1 0 0 -1 -13347.2646 8026.1353)" gradientUnits="userSpaceOnUse" x1="-13475.901" x2="-13475.901" y1="7532.025" y2="7431.157"><stop offset="0" stop-color="#ffefa1"/><stop offset="1" stop-color="#fff"/></linearGradient><linearGradient xmlns:xlink="http://www.w3.org/1999/xlink" id="d" gradientTransform="matrix(1 0 0 -1 242.4 8026.1353)" gradientUnits="userSpaceOnUse" x1="346.969" x2="346.969" xlink:href="#a" y1="7567.704" y2="7431.746"/><g fill="#c4ecfe" opacity=".3"><path d="M701.729 2.238v592.065H3.866V2.238zM703.967 0H1.628v596.643h702.34V0z"/><path d="M171.617 0h2.136v596.643h-2.136zm89.319 0h2.136v596.643h-2.136z"/><path d="M171.617 0h2.136v596.643h-2.136zm-89.42 0h2.136v596.643h-2.136zm268.057 0h2.136v596.643h-2.136zm89.319 0h2.136v596.643h-2.136zm88.301 0h2.136v596.643h-2.136zm88.301 0h2.136v596.643h-2.136z"/></g><g fill="#bfd9ff"><circle cx="690.641" cy="235.91" r="3.052"/><circle cx="655.239" cy="124.008" r="3.052"/><circle cx="113.835" cy="73.143" r="3.052"/><circle cx="396.134" cy="18.922" r="3.052"/><circle cx="60.834" cy="288.81" r="2.747"/></g><path d="M307.426 596.541c-46.999-3.052-62.462-67.447-89.929-92.777-27.467-25.331-86.673-7.223-99.593-76.501-8.647-46.287-47.202-48.321-79.247-65.412C21.16 352.594 0 365.208 0 385.147v211.394z" fill="url(#b)"/><path d="M257.07 596.541c-34.486-2.442-78.433-78.23-127.976-78.23-65.615 0-57.986-28.077-85.046-31.841C12.003 481.892.203 499.898.203 548.118v50.153z" fill="url(#c)"/><path d="M703.967 461.648V600l-229.196-3.052c42.421 0 56.358-41.709 76.501-74.669 10.885-17.701 23.601-32.859 43.438-37.436 21.77-4.985 33.978-20.651 44.252-37.945l1.221-2.238c17.498-30.316 63.784-18.007 63.784 16.988z" fill="url(#d)"/><path d="m635.82 59.134 49.372-42.903 4.803 5.528-49.371 42.903zM21.949 210.644l4.066-6.093 59.318 39.586-4.066 6.093zM314.016 16.43l7.191-1.397 7.76 39.949-7.19 1.397z" fill="#f9d5ff"/></svg></g><g transform="translate(121.875 2473.125) rotate(0.0 826.875 6.5625) scale(5.543283702159325 4.324546952224052)"><svg width="298.334" height="3.035" viewBox="0 0 298.334 3.035"><path d="M0 0h298.334v3.035H0z" fill="#2b2b2b"/></svg></g><g transform="translate(1749.375 435.0) rotate(0.0 526.875 1020.9375) scale(3.692988666073218 3.686247217543422)"><svg width="285.338" height="553.917" viewBox="0 0 285.338 553.917"><linearGradient id="e" gradientTransform="matrix(1 0 0 -1 0 -1447.207)" gradientUnits="userSpaceOnUse" x1="146.368" x2="146.368" y1="-1537.428" y2="-1412.761"><stop offset="0" stop-color="#9774ac"/><stop offset=".4" stop-color="#47a6d3"/><stop offset=".5" stop-color="#a7a7ae"/><stop offset=".59" stop-color="#e89ac0"/><stop offset="1" stop-color="#bfe7d1"/></linearGradient><linearGradient xmlns:xlink="http://www.w3.org/1999/xlink" id="f" x1="147.433" x2="147.433" xlink:href="#e" y1="-1537.42" y2="-1412.754"/><linearGradient xmlns:xlink="http://www.w3.org/1999/xlink" id="g" gradientTransform="matrix(1 0 0 -1 .008 -1447.207)" x1="190.472" x2="190.472" xlink:href="#e" y1="-1537.428" y2="-1412.754"/><linearGradient xmlns:xlink="http://www.w3.org/1999/xlink" id="h" gradientTransform="matrix(1 0 0 -1 .029 -1447.334)" x1="104.255" x2="104.255" xlink:href="#e" y1="-1537.461" y2="-1412.788"/><linearGradient xmlns:xlink="http://www.w3.org/1999/xlink" id="i" x1="148.094" x2="148.094" xlink:href="#e" y1="-1522.213" y2="-1493.983"/><path d="m228.664 534.791-54.832-1.322s-5.189-24.212-11.6-53.408h66.735c-.1 29.095-.507 52.899-.303 54.73zM98.45 482.3c-7.833 28.077-14.038 51.068-14.038 51.068l-54.934.611c.407-2.035 2.543-28.688 5.188-60.428zm151.068-338.556c2.035 8.443 3.663 16.988 5.29 25.534s3.154 17.09 4.578 25.737 2.747 17.193 4.069 25.738c.712 4.272 1.221 8.647 1.831 12.919a47.537 47.537 0 0 0 1.221 6.409l1.221 6.409c3.357 17.091 6.511 34.181 9.461 51.374s5.7 34.486 7.935 51.78a23.07 23.07 0 0 1-44.761 10.275c-5.7-16.786-10.784-33.673-15.667-50.763s-9.664-33.978-14.14-51.069l-1.729-6.408a46.5 46.5 0 0 1-1.526-6.511c-.916-4.375-1.832-8.647-2.645-12.92-1.73-8.647-3.357-17.4-4.985-26.043s-3.052-17.4-4.476-26.144-2.747-17.4-3.764-26.246a29.528 29.528 0 0 1 58.087-10.071z" fill="#fdc068"/><path d="M253.384 142.319c2.543 21.364 12.106 37.844-38.148 43.846a39.057 39.057 0 0 1-9.156-77.518c21.261-2.442 44.659 12.309 47.304 33.672z" fill="#2b2b2b"/><path d="M46.466 148.22c-.915 8.647-1.627 17.294-2.238 25.941-.712 8.647-1.119 17.4-1.526 26.042s-.712 17.4-1.017 26.043c-.1 4.375-.2 8.647-.407 13.022 0 2.238-.2 4.374-.407 6.51l-.508 6.511c-1.323 17.4-2.544 34.791-3.357 52.187-.916 17.4-1.628 34.893-1.73 52.391a23.033 23.033 0 0 0 45.575 4.984c3.561-17.294 6.714-34.791 9.563-52.187s5.493-34.893 8.036-52.39l.916-6.511c.305-2.238.712-4.374.814-6.511.407-4.374.813-8.85 1.119-13.225.712-8.85 1.322-17.7 1.933-26.449s1.017-17.7 1.424-26.45c.407-8.85.712-17.7.712-26.449a29.523 29.523 0 0 0-29.6-29.4 29.166 29.166 0 0 0-29.302 25.941z" fill="#fdc068"/><path d="M42.5 147.406c0 21.465-7.528 39.064 43.032 39.064a38.989 38.989 0 0 0 2.848-77.925h-2.849c-21.465-.101-43.031 17.396-43.031 38.861zm209.256 406.511h-69.379c-4.578 0-8.24-3.866-8.342-8.749l-.2-11.8 54.832.611 24.11 10.986c4.88 1.322 3.964 8.952-1.021 8.952z" fill="#2b2b2b"/><path d="M228.969 480.061h-66.734c-7.63-35.1-16.888-77.416-20.652-93.388-2.441-10.478-25.127-158.392-25.127-158.392l74.059-25.127c.509 1.322 3.459 14.547 7.528 33.367 10.58 49.44 28.586 136.521 29.1 142.218 1.724 21.261 2.029 65.412 1.826 101.322z" fill="#ffeae0"/><path d="M3.638 553.917h69.38c4.578 0 8.749-3.866 9.562-8.749l1.832-11.8-54.934.611-25.636 10.985c-4.985 1.323-5.188 8.953-.204 8.953z" fill="#2b2b2b"/><path d="M173.832 228.179s-23.7 81.994-37.437 128.179c-4.679 15.87-8.24 27.569-9.155 30.214-6 16.276-18.617 60.122-28.586 95.727l-59-8.138h-.1l-4.68-.712c2.747-34.283 6.1-74.365 8.139-94.914 1.424-15.361 29.6-95.422 47-142.218 6.51-17.4 11.495-30.213 13.123-33.367l42.726 15.158z" fill="#ffeae0"/><path d="M137.209 358.7a1 1 0 0 1-1.017-.916l-4.273-50.254a1.079 1.079 0 1 1 2.136-.305l4.273 50.254a1.127 1.127 0 0 1-.915 1.221zm53.611-160.429 6.918 38.148H89.905l13.632-39.064c-.916-19.837-36.623-30.722-32.859-56.968 3.154-21.872 23.6-36.318 51.475-36.521 12.615-.1 27.264-.3 38.047-.407h2.747a88.436 88.436 0 0 1 21.261 2.34c20.549 4.883 38.25 17.192 38.759 37.131.61 34.181-31.027 32.451-32.147 55.341z" fill="#2b2b2b"/><path d="M128.155 173.55a19.817 19.817 0 0 1 18.21 10.784 42.163 42.163 0 0 1 1.933 4.984 16.254 16.254 0 0 1 .712 5.8c0 3.154 0 4.68-.1 7.833a27.4 27.4 0 0 1-.712 5.8 28.946 28.946 0 0 1-1.729 4.985c-3.561 7.324-11.292 10.783-19.024 10.783-7.528 0-15.463-3.256-18.311-10.783a21.939 21.939 0 0 1-1.119-4.985 22.171 22.171 0 0 1-.1-5.8c.509-3.459 2.747-5.493 5.7-5.493h4.883c3.052 0 4.679 1.933 4.578 5.493-.1 3.256 1.627 5.392 4.679 5.392 3.256 0 5.29-2.136 5.392-5.392s.1-4.679.1-7.833c.1-3.459-1.628-5.188-4.883-5.493a2.966 2.966 0 0 0-2.544.915 3.955 3.955 0 0 1-2.95.916h-4.07a8.678 8.678 0 0 1-6.918-2.747c-1.627-1.831-2.543-4.578-2.746-8.138-.611-7.223-1.73-14.446-2.747-21.669-.407-3.357.3-6 2.035-7.935s4.476-2.848 8.138-2.848h27.158a5.485 5.485 0 0 1 4.069 1.424 5.687 5.687 0 0 1 1.322 3.968v5.389a5.692 5.692 0 0 1-1.322 3.968 5.485 5.485 0 0 1-4.069 1.424H125.1c-1.729 0-2.441.916-2.339 2.747.2 2.746.305 4.171.508 7.019a36.05 36.05 0 0 1 4.886-.508zm54.731 45.066a5.42 5.42 0 0 1-1.221 4.171 6.318 6.318 0 0 1-3.968 1.425H172.2a5.338 5.338 0 0 1-3.967-1.425 6.034 6.034 0 0 1-1.526-4.171c-.916-17.294-1.933-33.977-.814-51.373q.151-2.746-2.442-2.747h-2.441a4.971 4.971 0 0 1-3.866-1.424 5.608 5.608 0 0 1-1.221-3.967c.1-2.137.1-3.256.1-5.392a5.337 5.337 0 0 1 1.424-3.967 5.482 5.482 0 0 1 4.069-1.425H172.2c3.561 0 6.409.916 8.138 2.849s2.442 4.578 2.035 7.935c-2.844 21.159-1.929 38.352.513 59.511z" fill="#ffeae0"/><path d="M178.1 108.342a31.333 31.333 0 0 1-62.665 0c0-.916-.1-3.357 0-4.375a95.325 95.325 0 0 1 15.065-1.017l29.7-2.034a62.849 62.849 0 0 1 17.4 1.831 35.765 35.765 0 0 1 .5 5.595z" fill="#fff"/><path d="m184.005 105.8-27.467 18.006L160 103.459h2.747a88.449 88.449 0 0 1 21.258 2.341z" fill="#2b2b2b"/><path d="M167.016 109.766c-.1.407-.1.712-.2 1.119a19.018 19.018 0 0 1-18.316 14.751h-1.424a19.106 19.106 0 0 1-19.43-18.82v-.509l.508-53.611 35.3-1.221 2.646 40.183.2 3.052 1.017 10.275a18.914 18.914 0 0 1-.301 4.781z" fill="#fdc068"/><path d="M167.016 109.766 130.8 99.39l35.2-7.63.2 3.052 1.017 10.274a24.406 24.406 0 0 1-.201 4.68z" fill="#2b2b2b"/><path d="m182.886 64.9-1.73 7.834a35.056 35.056 0 0 1-69.684-.1l-1.73-8.037a38.114 38.114 0 0 1 11.8-36.317 37.368 37.368 0 0 1 22.278-9.461 22.942 22.942 0 0 1 2.645-.1h1.323a36.1 36.1 0 0 1 23.3 9.461 38.752 38.752 0 0 1 11.798 36.72z" fill="#fdc068"/><circle cx="132.936" cy="65.209" fill="#2b2b2b" r="3.052"/><circle cx="159.691" cy="65.209" fill="#2b2b2b" r="3.154"/><path d="M146.263 76.907a.89.89 0 0 1-.916-.508 1.068 1.068 0 0 1 .306-1.424l2.746-1.73a1.285 1.285 0 0 0 .407-.915 1.243 1.243 0 0 0-.305-.916 11.482 11.482 0 0 1-2.238-3.662 1.1 1.1 0 0 1 2.035-.814 9.4 9.4 0 0 0 1.831 3.052.1.1 0 0 0 .1.1 2.929 2.929 0 0 1 .713 2.543 3.535 3.535 0 0 1-1.221 2.34l-.1.1-2.747 1.73a1.3 1.3 0 0 1-.611.104z" fill="#2b2b2b"/><path d="M138.532 80.773c1.322 13.835 16.785 9.97 16.683 0" fill="#fff"/><path d="M179.427 83.113V54.324a124.083 124.083 0 0 1-14.649 2.848 120.711 120.711 0 0 1-33.164.3 143.45 143.45 0 0 1-17.294-3.153v30.01c-8.851-8.647-13.835-34.08-13.835-34.08a45.884 45.884 0 0 1 91.76 1.221c-.204.005-5.087 23.403-12.818 31.643z" fill="url(#e)"/><path d="M169.559 12.208v13.428a12.135 12.135 0 0 1-12.106 12.106h-20.04a12.135 12.135 0 0 1-12.106-12.106V12.208A12.134 12.134 0 0 1 137.413.1h20.04a12.069 12.069 0 0 1 12.106 12.108z" fill="url(#f)"/><path d="m187.158 42.014 5.7.712a4.9 4.9 0 0 1 4.273 5.392l-2.241 19.227a4.9 4.9 0 0 1-5.392 4.272l-5.7-.712 3.357-28.891z" fill="url(#g)"/><path d="m110.963 70.8-5.7.712a4.9 4.9 0 0 1-5.392-4.273l-2.235-19.223a4.9 4.9 0 0 1 4.273-5.391l5.7-.712z" fill="url(#h)"/><g fill="#2b2b2b"><path d="M149.01 0v30.01a1.129 1.129 0 0 1-1.119 1.119h-1.119a1.128 1.128 0 0 1-1.119-1.119V0zm-2.035 81.18-48.118-6.511v-7.324a1.067 1.067 0 0 1 1.119-1.119 1.018 1.018 0 0 1 1.119 1.119v5.493l45.982 6.307 45.982-6.307v-5.493a1.066 1.066 0 0 1 1.119-1.119 1.018 1.018 0 0 1 1.119 1.119v7.324zm0 8.647-40.692-5.493a1.127 1.127 0 0 1-.915-1.221c0-.61.61-.916 1.221-.916l40.386 5.494 41.2-5.595a1.079 1.079 0 0 1 .305 2.136z"/><path d="m146.975 104.985-33.469-6.511-14.547-24.212a1.047 1.047 0 1 1 1.831-1.017l14.039 23.4 32.044 6.307 32.045-6.307 14.039-23.4a1.047 1.047 0 0 1 1.831 1.017l-14.547 24.212z"/><path d="M169.559 100.61a.615.615 0 0 1-.407-.1 1.178 1.178 0 0 1-.61-1.425l9.766-23.8a1.1 1.1 0 1 1 2.034.814l-9.766 23.8a1.223 1.223 0 0 1-1.017.711zm-12.309 2.34c-.712-.1-1.119-.508-1.018-1.119l1.526-23.4a1.07 1.07 0 0 1 2.137.1l-1.526 23.4a1.185 1.185 0 0 1-1.119 1.019zm-32.961-2.34a.871.871 0 0 1-.915-.712l-9.868-23.8a1.1 1.1 0 1 1 2.035-.814l9.766 23.8a1.085 1.085 0 0 1-.611 1.425c-.096 0-.203.101-.407.101zm12.311 2.34a.961.961 0 0 1-1.018-1.017l-1.526-23.4a.972.972 0 0 1 .916-1.119 1.036 1.036 0 0 1 1.119.916l1.526 23.4a.981.981 0 0 1-1.017 1.221z"/></g><path d="M164.676 56.663v.509a120.711 120.711 0 0 1-33.164.3v-.814a10.42 10.42 0 0 1 10.377-10.376H154.3a10.42 10.42 0 0 1 10.376 10.381z" fill="url(#i)"/><path d="M228.969 480.061h-5.7l-3.357-108.138-28.586-135.5h6.511c10.58 49.339 28.586 136.521 29.094 142.218 1.936 21.359 2.241 65.51 2.038 101.42zM94.991 236.419l-46.185 135.5-9.359 102.343h-.1l-4.679-.712c2.747-34.282 6.1-74.364 8.138-94.913 1.424-15.361 29.6-95.422 47-142.218z" fill="#2b2b2b"/></svg></g><g transform="translate(170.625 373.125) rotate(0.0 871.875 1050.9375) scale(3.6830788532661383 3.682964138902615)"><svg width="473.449" height="570.702" viewBox="0 0 473.449 570.702"><linearGradient id="j" gradientTransform="matrix(1 0 0 -1 0 -1403.679)" gradientUnits="userSpaceOnUse" x1="220.498" x2="220.498" y1="-1358.113" y2="-1712.981"><stop offset="0" stop-color="#ffe0c2"/><stop offset=".4" stop-color="#7aaefc"/><stop offset=".59" stop-color="#b8c1fc"/><stop offset="1" stop-color="#d2d4d4"/></linearGradient><path d="M272.533 112.716c-.1-.1.1-.1.2-.1s.2-.1.3-.1a1.5 1.5 0 0 1 .712-.1l1.424-.305c.916-.1 1.933-.2 2.848-.3a34.3 34.3 0 0 1 5.6.1 60.917 60.917 0 0 1 10.478 1.73c6.816 1.627 13.021 5.086 19.532 7.121 3.255 1.017 6.409 2.136 9.461 3.153a58.247 58.247 0 0 0 9.257 2.238 48.763 48.763 0 0 0 8.647.407c1.322-.1 2.543-.305 3.866-.407a16.218 16.218 0 0 0 3.357-.712c1.017-.305 2.034-.508 2.848-.814a25.536 25.536 0 0 0 2.849-1.017c2.848-1.221 5.7-2.543 8.341-3.967 6-3.256 12.411-7.325 18.617-11.5 6.307-4.171 12.614-8.647 19.023-13.428l9.461-7.019 4.68-3.561 4.476-3.56.61-.509a23.065 23.065 0 0 1 32.248 3.866 22.821 22.821 0 0 1-1.119 29.6l-4.374 4.883-4.374 4.68c-2.951 3.051-5.8 6.2-8.851 9.155-6 6-12.106 12-18.515 17.905a255.236 255.236 0 0 1-20.752 17.192 142.418 142.418 0 0 1-12.615 8.342 88.408 88.408 0 0 1-8.24 4.069c-1.424.61-2.95 1.119-4.374 1.628s-2.95.915-4.375 1.322a118.89 118.89 0 0 1-8.647 1.831c-1.424.2-2.746.407-4.171.61-1.424.1-2.746.407-4.171.509-5.493.712-10.681 1.017-15.869 1.424s-10.275 1.425-15.361 2.035a62.275 62.275 0 0 1-7.528.407 59.529 59.529 0 0 1-7.325-.712 46.981 46.981 0 0 1-13.53-4.883c-4.273-2.238-8.342-4.883-12.411-6.918-2.035-1.017-4.171-1.933-6.307-2.848s-4.171-1.73-6.307-2.645c-2.035-.916-4.273-1.73-6.409-2.442-1.119-.407-2.238-.712-3.357-1.221l-3.764-1.22a29.343 29.343 0 0 1-15.056-38.759 29.771 29.771 0 0 1 38.962-15.158z" fill="#fdc068"/><path d="M383.927 105.29s19.125 31.841 36.317 39.674l21.669-17.395-39.573-37.132z" fill="#e3514f"/><circle cx="434.69" cy="97.152" fill="#f96361" r="38.759" transform="matrix(.16017407 -.98708878 .98708878 .16017407 269.163 510.666)"/><path d="M186.877 170.5a4.378 4.378 0 0 1-.712.407c-.1.1-.407.306-.509.407-.305.3-.712.611-.915.814-.611.509-1.221.916-1.832 1.424a41.934 41.934 0 0 1-3.56 2.238 31.818 31.818 0 0 1-7.019 2.849 27.352 27.352 0 0 1-7.02 1.119 40.635 40.635 0 0 1-7.019-.407 19.235 19.235 0 0 1-3.459-.916 8.63 8.63 0 0 1-1.729-.61c-.509-.2-1.119-.407-1.73-.712-2.238-1.119-4.476-2.238-6.714-3.561s-4.374-2.543-6.51-3.662a38.848 38.848 0 0 0-6.715-2.747 127.473 127.473 0 0 0-13.937-3.662 122.08 122.08 0 0 1-14.547-3.764c-2.441-.814-4.883-1.831-7.324-2.848s-4.883-2.238-7.325-3.459-4.883-2.645-7.324-4.171a83.152 83.152 0 0 1-7.223-4.985 77.927 77.927 0 0 1-7.019-6 66.565 66.565 0 0 1-6.308-6.816 130.037 130.037 0 0 1-8.748-12.411c-5.087-8.036-9.36-15.768-13.327-23.6s-7.426-15.564-10.885-23.4a239.968 239.968 0 0 1-4.883-11.8l-2.34-6-2.34-6.1a23.023 23.023 0 0 1 41.2-20.142l.407.712 2.95 4.883 3.052 4.984c2.034 3.358 4.171 6.613 6.307 9.97 4.171 6.612 8.444 13.123 12.92 19.329s8.85 12.309 13.224 17.395c2.035 2.34 4.171 4.68 6.409 6.816 1.119 1.017 1.526 1.323 2.238 2.035a20.781 20.781 0 0 0 2.34 1.831 34.438 34.438 0 0 0 2.849 2.034 27.249 27.249 0 0 0 3.357 1.832 33.657 33.657 0 0 0 8.24 2.543 18.855 18.855 0 0 0 4.781.1c1.628-.1 3.357-.306 4.985-.407a32.784 32.784 0 0 1 9.969.2 26.553 26.553 0 0 1 4.883 1.323c1.73.61 3.357 1.322 4.883 2.034 3.357 1.526 6.714 3.357 10.275 4.375a49.7 49.7 0 0 0 5.29 1.22 45.742 45.742 0 0 0 5.392.712 47.1 47.1 0 0 0 5.391.1c.916 0 1.73-.1 2.543-.1l1.221-.1c.2 0 .407-.1.611-.1l.2-.1c.1 0 .2-.1.1-.1a29.451 29.451 0 0 1 3.459 58.8c0 .1-.2.1-.509.2z" fill="#fdc068"/><path d="M83.011 64.6s-29.3 22.788-48.22 23.907L20.855 64.4l50.152-20.453z" fill="#e3514f"/><circle cx="38.759" cy="38.759" fill="#f96361" r="38.759"/><path d="M179.044 196.643c-7.223 25.127-4.578 57.884 23.8 56.561 21.872-.915 23.4-.1 32.656-.508 29.2-1.221 37.131-31.74 29.2-59.207z" fill="#f96361"/><path d="M273.754 173.449c-4.985 5.9-9.156 12-9.054 21.668l-85.656 1.526c-1.018-7.833-6.307-14.649-11.8-21.974 7.732-7.121 12.92-19.837 12.92-34.486 0-11.5-3.256-21.973-8.342-29.3 5.493-3.357 12.411-5.7 20.651-6.816 4.476-.61 8.952-2.136 13.733-2.238L233.571 100h.1a55.123 55.123 0 0 1 15.87 1.729c2.34.611 4.68 1.425 6.918 2.238a139.387 139.387 0 0 1 14.241 6.613c-5.29 7.324-8.647 17.9-8.647 29.6.002 13.838 4.58 25.944 11.701 33.269z" fill="url(#j)"/><path d="M249.847 106.816a28.789 28.789 0 0 1-57.578 0 23.15 23.15 0 0 1 .1-2.645 51.832 51.832 0 0 1 13.734-2.34L233.469 100a56.226 56.226 0 0 1 15.972 1.729 28.609 28.609 0 0 1 .406 5.087z" fill="#fff"/><path d="m256.358 104.069-20.142 17.7-2.747-21.669h.1a55.1 55.1 0 0 1 15.87 1.729 42.289 42.289 0 0 1 6.919 2.24z" fill="#2b2b2b"/><path d="M243.235 110.173a21.5 21.5 0 0 1-20.651 16.684h-1.729a21.582 21.582 0 0 1-21.974-21.16v-.712l.61-60.631 39.777-1.424 3.255 48.83 1.221 11.6a21.834 21.834 0 0 1-.509 6.813z" fill="#fdc068"/><path d="M243.235 110.173 206.816 99.7l35.809-7.833 1.22 11.6a25.011 25.011 0 0 1-.61 6.706z" fill="#2b2b2b"/><circle cx="184.944" cy="63.988" fill="#fdc068" r="13.428"/><circle cx="255.748" cy="63.988" fill="#fdc068" r="13.428"/><path d="m256.46 63.581-1.73 7.833a34.741 34.741 0 0 1-69.074-.1l-1.729-7.935a38.162 38.162 0 0 1 11.7-36.114 36.212 36.212 0 0 1 21.973-9.259 22.075 22.075 0 0 1 2.543-.1h1.323a36.483 36.483 0 0 1 16.073 4.375 38.134 38.134 0 0 1 7.019 4.984 37.487 37.487 0 0 1 11.902 36.316z" fill="#fdc068"/><circle cx="206.918" cy="57.681" fill="#2b2b2b" r="3.052"/><circle cx="233.469" cy="57.681" fill="#2b2b2b" r="3.154"/><path d="M220.142 69.278a.889.889 0 0 1-.915-.509 1.068 1.068 0 0 1 .305-1.424l2.747-1.73a1.17 1.17 0 0 0 .1-1.729 11.482 11.482 0 0 1-2.238-3.662 1.1 1.1 0 0 1 2.035-.814 8.026 8.026 0 0 0 1.831 2.95l.1.1a3.522 3.522 0 0 1-.407 4.883l-.1.1-2.746 1.729a1.986 1.986 0 0 1-.712.106z" fill="#2b2b2b"/><path d="M212.513 73.042c1.322 13.733 16.683 9.969 16.582 0" fill="#fff"/><path d="M244.761 27.365s-11.394 4.985-23.6 4.985c-12.106 0-25.534-4.985-25.534-4.985a36.206 36.206 0 0 1 21.973-9.257 22.075 22.075 0 0 1 2.543-.1h1.323c5.9.2 12.309 1.526 17.09 4.171l6.206 5.188zM235 73.042h-28.489a13.439 13.439 0 0 1 10.274-4.883h7.834A14.165 14.165 0 0 1 235 73.042z" fill="#565656"/><path d="m297.66 338.149-88.911 5.188c-8.749-51.17-18.108-122.991-18.108-122.991l74.059-25.127c1.933 4.679 6.511 20.346 11.8 40.691 4.781 18.414 10.172 40.591 14.445 62.259 2.855 13.937 5.189 27.772 6.715 39.98z" fill="#f96361"/><path d="m297.559 338.149-1.73-14.446-89.115 7.223 2.035 12.411z" fill="#fff"/><path d="M313.123 570.7h-69.379c-4.578 0-8.24-3.866-8.342-8.749l-.3-11.8 54.832.61 24.11 10.987c4.979 1.324 4.064 8.952-.921 8.952z" fill="#2b2b2b"/><path d="m290.031 551.475-54.831-1.322s-12.512-142.32-19.43-171.516c-2.441-10.478-4.374-19.634-7.019-35.4l88.911-5.086c1.628 13.224 2.849 24.618 3.561 32.451 3.558 38.961-11.396 176.906-11.192 180.873z" fill="#fdc068"/><path d="m122.991 345.168 88.5 4.476c15.667-51.17 36.623-129.4 36.623-129.4l-70.8-25.127c-6.103 11.801-40.895 98.067-54.323 150.051z" fill="#f96361"/><path d="M78.026 570.7h69.38c4.578 0 8.749-3.866 9.562-8.749l1.832-11.8-54.934.61L78.23 561.75c-4.985 1.322-5.188 8.95-.204 8.95z" fill="#2b2b2b"/><path d="m103.866 550.763 54.934-.61s31.841-142.32 42.726-171.516c3.866-10.478 5.188-13.225 10.071-28.993l-88.5-4.476c-3.357 13.225-4.171 17.6-5.9 25.432-8.957 38.963-12.517 176.094-13.331 180.163z" fill="#fdc068"/><path d="M266.734 202.848h-92.573l3.56-13.428 87.488.916zm-55.137 146.796 3.459-11.495-88.708-5.697-3.357 12.716z" fill="#fff"/><path d="M211.6 350.763a.373.373 0 0 1-.305-.1.964.964 0 0 1-.712-1.322l15.056-51.068a1.062 1.062 0 1 1 2.034.61l-15.056 51.068a1.169 1.169 0 0 1-1.017.812z" fill="#2b2b2b"/><path d="M289.318 139.674c0 17.4-15.564 33.775-22.482 44.456-7.019-7.324-4.679-30.112-4.679-43.845 0-11.7 3.357-22.279 8.647-29.6 11.696 6.406 18.514 14.442 18.514 28.989zm-109.155.611c0 14.547 2.848 33.367-6.206 43.845-6.1-8.342-25.025-25.941-25.127-38.453-.2-15.056 11.394-27.569 22.991-34.69 5.086 7.324 8.342 17.701 8.342 29.298z" fill="#fdc068"/><g fill="#2b2b2b"><path d="M75.381 52.391a1.069 1.069 0 0 1-.915-.509L55.544 19.023a1.047 1.047 0 1 1 1.831-1.017L76.3 50.865a1.006 1.006 0 0 1-.407 1.424 4.438 4.438 0 0 0-.512.102zM270.3 180.163a2.585 2.585 0 0 1-.712-.2l-5.7-4.476a1.01 1.01 0 1 1 1.323-1.526l5.7 4.476a.99.99 0 0 1 .1 1.425 1.168 1.168 0 0 1-.711.301zm26.75 386.572c1.424.3 2.747.508 4.171.712a25.479 25.479 0 0 1-4.171-.712zm4.883.813c-.2 0-.509-.1-.712-.1a1.74 1.74 0 0 0 .712.1z"/></g></svg></g><g transform="translate(1053.75 978.75) rotate(0.0 540.9375 750.9375) scale(3.7362980819041436 3.733666955043107)"><svg width="289.558" height="402.252" viewBox="0 0 289.558 402.252"><linearGradient id="k" gradientTransform="matrix(1 0 0 -1 0 -2211.871)" gradientUnits="userSpaceOnUse" x1="111.778" x2="111.778" y1="-2193.104" y2="-2455.724"><stop offset="0" stop-color="#ea979a"/><stop offset=".41" stop-color="#f2d38b"/><stop offset=".5" stop-color="#7e9dae"/><stop offset=".6" stop-color="#90979d"/><stop offset="1" stop-color="#7ebddb"/></linearGradient><linearGradient xmlns:xlink="http://www.w3.org/1999/xlink" id="m" x1="187.136" x2="187.136" xlink:href="#k" y1="-2193.104" y2="-2455.724"/><linearGradient id="l" gradientTransform="matrix(1 0 0 -1 0 -2211.871)" gradientUnits="userSpaceOnUse" x1="153.194" x2="153.194" y1="-2371.565" y2="-2667.692"><stop offset="0" stop-color="#f9d5ff"/><stop offset=".17" stop-color="#f9d5fc"/><stop offset=".32" stop-color="#f9d5f1"/><stop offset=".45" stop-color="#fad6e0"/><stop offset=".58" stop-color="#fbd7c7"/><stop offset=".71" stop-color="#fcd8a7"/><stop offset=".83" stop-color="#fdd97f"/><stop offset=".95" stop-color="#feda52"/><stop offset="1" stop-color="#ffdb40"/></linearGradient><linearGradient xmlns:xlink="http://www.w3.org/1999/xlink" id="n" x1="122.58" x2="122.58" xlink:href="#l" y1="-2372.566" y2="-2432.89"/><linearGradient xmlns:xlink="http://www.w3.org/1999/xlink" id="o" x1="152.437" x2="152.437" xlink:href="#k" y1="-2193.104" y2="-2455.724"/><linearGradient xmlns:xlink="http://www.w3.org/1999/xlink" id="p" x1="169.477" x2="169.477" xlink:href="#l" y1="-2371.661" y2="-2478.698"/><path d="M62.152 91.978 4.98 36.739A19.114 19.114 0 0 1 6.2 9.78a18.919 18.919 0 0 1 24.213-1.22l61.241 52.9" fill="#ea7068"/><path d="m91.552 61.357 62.157 50.153c10.173 10.376 10.58 31.332.1 41.4a26.342 26.342 0 0 1-37.233-.407L62.051 91.978z" fill="url(#k)"/><path d="m204.98 60.543 52.086-55.137a19.118 19.118 0 0 1 29.1 24.517l-49.543 59" fill="#ea7068"/><path d="m236.618 88.926-49.44 67.65c-10.071 10.478-30.926 11.6-41.4 1.526a26.469 26.469 0 0 1-.814-37.335l60.02-60.325z" fill="url(#m)"/><path d="M115.052 160.442c-6.409 18.616 2.95 42.726 23.906 41.912 16.175-.712 17.294-.1 24.11-.407 21.567-.915 35.5-23.5 28.382-43.845z" fill="url(#l)"/><path d="M191.45 220.055h-82.2l-55.544-52.9c22.991-7.528 39.979-6.816 61.139-6.816 20.044 10.276 76.605 59.716 76.605 59.716z" fill="url(#n)"/><path d="m191.45 159.424-76.5 1.119c-2.035-12.411-6.511-17.09-13.428-32.655v-.407c0-.407-.1-.915-.1-1.322h.1c.508-12.92 12.614-28.891 29.6-34.08A38.787 38.787 0 0 1 141.3 90.35l20.244-1.322h.1a46.087 46.087 0 0 1 11.8 1.22 34.516 34.516 0 0 1 5.189 1.73c15.157 6.205 24.72 20.651 24.822 31.536 0 10.786-12.513 25.941-12.005 35.91z" fill="url(#o)"/><path d="M173.851 94.012a21.339 21.339 0 0 1-42.624 0 13.723 13.723 0 0 1 .1-2.034 38.754 38.754 0 0 1 10.173-1.73l20.244-1.322a46.051 46.051 0 0 1 11.8 1.221c.104 1.322.307 2.645.307 3.865z" fill="#fff"/><path d="M178.633 91.978 163.678 105.1l-2.034-16.073h.1a46.1 46.1 0 0 1 11.8 1.22 37.624 37.624 0 0 1 5.089 1.731z" fill="#2b2b2b"/><path d="M168.867 96.454a16.1 16.1 0 0 1-15.362 12.411h-1.22A16 16 0 0 1 136.008 93.2v-.407l.407-48.932 29.4-1.018 2.441 36.114.916 12.717a12.832 12.832 0 0 1-.305 4.78z" fill="#ea7068"/><path d="m168.867 96.454-27.06-11.8 26.449-5.7.916 12.717a12.832 12.832 0 0 1-.305 4.783z" fill="#2b2b2b"/><circle cx="122.783" cy="53.015" fill="#ea7068" r="11.088"/><circle cx="181.074" cy="53.015" fill="#ea7068" r="11.088"/><path d="M151.776 86.688a29.128 29.128 0 0 1-28.993-26.145l-1.424-6.714c-3.968-18.718 9.359-36.928 28.382-38.25a15.721 15.721 0 0 1 2.238-.1h1.121c19.533.712 33.469 19.329 29.3 38.454l-1.425 6.612a29.54 29.54 0 0 1-29.199 26.143z" fill="#ea7068"/><circle cx="138.856" cy="44.877" fill="#2b2b2b" r="2.747"/><circle cx="163.17" cy="44.877" fill="#2b2b2b" r="2.95"/><path d="M150.962 55.762a.889.889 0 0 1-.915-.509 1.068 1.068 0 0 1 .305-1.424l2.441-1.627a1.23 1.23 0 0 0 .1-1.526 9.611 9.611 0 0 1-2.035-3.357 1.1 1.1 0 1 1 2.035-.814 9.34 9.34 0 0 0 1.628 2.746 3.353 3.353 0 0 1-.305 4.68l-.1.1-2.543 1.627c-.204.002-.407.104-.611.104z" fill="#2b2b2b"/><path d="M143.943 59.119c1.221 12.615 15.259 9.156 15.259 0" fill="#fff"/><path d="M122.987 54.745a2.194 2.194 0 0 0 2.238-2.238V37.146c0-7.63 10.478-8.647 25.127-8.647 14.547 0 26.958.712 27.263 7.324l.916 16.684a2.152 2.152 0 0 0 2.238 2.034h.407a2.291 2.291 0 0 0 2.238-2.034l.509-5.188a32.01 32.01 0 0 0-27.264-35.911 33.165 33.165 0 0 0-4.476-.3 31.932 31.932 0 0 0-32.045 31.841c0 1.323.1 2.543.2 3.866l.61 5.7a1.936 1.936 0 0 0 2.039 2.23z" fill="#fec73a"/><path d="M209.05 265.223h-66.328c-6.511-37.945-12.818-87.182-12.818-87.182l61.546-18.617c4.273 8.647 12.92 67.345 17.6 105.799z" fill="url(#p)"/><g fill="#2b2b2b"><path d="M220.545 402.252h-51.272a6.433 6.433 0 0 1-6.2-6.51l-.2-8.647 40.591.407 17.9 8.138c3.555 1.017 2.945 6.612-.819 6.612zM27.463 308.763h64.191a6.5 6.5 0 0 0 6.2-6.511l.2-8.647-40.59.407-30.722 8.139c-3.654 1.017-2.942 6.612.721 6.612zm40.691 91.455c1.425.305 2.747.508 4.171.712a25.5 25.5 0 0 1-4.171-.712zm4.883.814c-.2 0-.508-.1-.712-.1a1.729 1.729 0 0 0 .712.1z"/></g><path d="m203.455 388.112-40.59-1.017s-9.258-70.4-14.344-91.964c-1.831-7.731-3.866-18.209-5.8-30.01h66.329c1.22 9.766 2.136 18.21 2.645 24.11 2.645 28.789-8.342 95.931-8.24 98.881zM98.063 220.055c4.679 32.655-1.323 77.62-1.323 77.62l-39.369-3.866c.1-3.052-30.417-76.094-22.279-103.764 2.34-7.935 7.02-17.7 18.82-22.787l55.545 52.9H98.063z" fill="#ea7068"/><path d="m198.572 67.054 32.553 29.298 5.493-7.426-31.638-28.383zm-107.02-5.697-29.4 30.621 6.816 7.528 30.519-31.74z" fill="#fff"/><path d="M98.063 221.174a1.1 1.1 0 0 1-1.017-.712l-4.273-10.58a1.1 1.1 0 0 1 2.035-.814l4.272 10.58a1.133 1.133 0 0 1-.61 1.424.768.768 0 0 1-.407.102zm37.945 2.136a1.192 1.192 0 0 1-1.119-.915l-3.052-21.974a1.079 1.079 0 1 1 2.136-.3l3.052 21.974a1.066 1.066 0 0 1-.915 1.22z" fill="#2b2b2b"/></svg></g><g transform="translate(1115.625 2130.0) rotate(0.0 174.375 171.5625) scale(3.6983425062832054 3.6505378060068305)"><svg width="94.299" height="93.993" viewBox="0 0 94.299 93.993"><path d="M94.3 46.934A46.718 46.718 0 0 1 9.661 74.3a40.124 40.124 0 0 1-2.849-4.374A46.817 46.817 0 0 1 1.827 37.27c.306-1.323.713-2.747 1.018-4.07a47.164 47.164 0 0 1 15.971-23.092c.814-.712 1.73-1.323 2.544-1.933.406-.305.915-.61 1.322-.916a46.654 46.654 0 0 1 46.9-1.729A47.332 47.332 0 0 1 94.3 46.934z" fill="#2b2b2b"/><path d="M44.554 91.593c1.424.3 2.747.509 4.171.712a25.479 25.479 0 0 1-4.171-.712zm4.883.814c-.2 0-.509-.1-.712-.1a1.724 1.724 0 0 0 .712.1z" fill="#2b2b2b"/><g fill="#fff"><path d="M51.166 56.6c-.1 3.154-.1 6.307-.1 9.461v.407a88.613 88.613 0 0 1-17.09 8.342c-4.476-2.241-9.056-4.377-13.125-7.53l-.509-.407q-.762-.611-1.221-.916l-.406-.3A4.736 4.736 0 0 1 18 64.94c-2.034-6.918-1.017-15.87-.2-20.651a.1.1 0 0 1 .1-.1l.1-.1a1.433 1.433 0 0 1 .407-.3 711.864 711.864 0 0 1 12.106-6.511c1.017-.508 2.035-1.119 3.052-1.526a.1.1 0 0 0 .1-.1h.407c2.746 2.95 7.935 7.121 16.988 11.19.1.1.1.407.1.509zm19.227-36.726c-.1 3.357-.305 9.766-.61 17.6l-.1.1c-.1.1-.1.1-.2.1a130.387 130.387 0 0 1-13.733 6.511 14.367 14.367 0 0 1-2.238.712c-10.682-4.578-16.073-9.461-18.515-12.106.1-2.543.2-5.188.407-7.629.2-2.747.509-5.494.814-8.24 0-.1.1-.2.1-.407 2.238-1.73 7.019-4.68 16.175-7.02h.707c.3 0 .407.1.712.1a4.946 4.946 0 0 1 1.119.407 94.364 94.364 0 0 1 10.987 5.8 15.942 15.942 0 0 1 4.272 3.56 4.392 4.392 0 0 0 .103.512zm-2.441 52.085v11.8c-1.221.814-2.544 1.729-3.866 2.441-.3.1-.611.407-.916.509-1.322.712-2.645 1.322-3.967 1.933-.509.2-1.119.509-1.628.712l-2.34 1.119c-10.376-.1-16.48-2.645-19.226-4.171-.407-2.747-.713-5.493-1.119-8.342a2.233 2.233 0 0 1-.1-.814 95.04 95.04 0 0 0 17.7-8.647 24.782 24.782 0 0 0 2.441 1.018c.1.1.407.1.509.1.407.1.712.2 1.017.306l1.017.305c.407.1.713.1 1.018.2.712.1 1.424.3 2.136.407 2.339.412 4.882.717 7.324 1.124zm25.33-33.672c-.407 3.052-.915 6.2-1.424 9.257a3.805 3.805 0 0 0-.1 1.017.614.614 0 0 1-.1.407.1.1 0 0 0-.1.1c-.1.1-1.73 1.323-9.054 3.561l-.407.1a1.435 1.435 0 0 1-.61-.2A55.17 55.17 0 0 0 76.6 44.8c-1.425-2.034-2.951-4.069-4.375-6 .3-8.24.509-15.056.712-18.514a29.336 29.336 0 0 1 7.02-2.137 2.8 2.8 0 0 1 2.543.611c1.424 1.22 2.747 2.238 4.171 3.56a4.062 4.062 0 0 1 1.221 1.628 44.935 44.935 0 0 1 5.188 13.428 1.288 1.288 0 0 1 .1.61v.611zM15.357 64.635a31.15 31.15 0 0 0-3.157 1.729 4.454 4.454 0 0 1-.712.407c-.2.1-.407.3-.611.407a.8.8 0 0 0-.3.2 2.235 2.235 0 0 0-.508.407c-.2.1-.407.407-.713.611a35.255 35.255 0 0 1-4.171-2.543l-.1-.1-.916-.814a6.807 6.807 0 0 1-1.629-2.746A47.784 47.784 0 0 1 .607 39.2a3.546 3.546 0 0 1 .508-1.323c.1-.1.1-.2.2-.3a.1.1 0 0 1 .1-.1 18.885 18.885 0 0 1 6.1-4.069 4.836 4.836 0 0 1 .3.712 27.686 27.686 0 0 0 5.494 7.325l.915.915.1.1.407.407a4.455 4.455 0 0 0 .712.61c-.798 4.576-1.917 13.63-.086 21.158zm75.077.712a44.986 44.986 0 0 1-9.563 14.242 5.572 5.572 0 0 1-.915.712 21.3 21.3 0 0 1-6.308 2.238 15.707 15.707 0 0 1-2.238.1c-.407 0-.407-.1-.407-.509 0-3.357-.1-6.816-.1-10.274a1.644 1.644 0 0 1 .508-.916 43.311 43.311 0 0 0 9.563-14.853.1.1 0 0 1 .1-.1c0-.2.1-.407.1-.611 6-1.729 9.156-2.95 10.682-3.865.1 1.22.3 2.441.407 3.662a8.731 8.731 0 0 1 .1 1.628c.411 3.256-.81 5.899-1.929 8.546zM53.811.443v.1c-.411 2.138-.711 4.173-1.119 6.309A67.443 67.443 0 0 0 41.6 10.515a34.594 34.594 0 0 0-7.02 4.17 6.886 6.886 0 0 1-.814-.3l-.406-.1c-.306-.1-.611-.1-.916-.2l-.712-.1-.407-.1a1.726 1.726 0 0 0-.712-.1h-.1a2.806 2.806 0 0 0-.915-.1c-.713-.1-1.221-.2-1.933-.3a4.162 4.162 0 0 0-1.119-.1 3.53 3.53 0 0 0-.916-.1c-.2 0-.712-.1-.915-.1-1.119-.1-2.238-.1-3.357-.1h-.1a22.893 22.893 0 0 1 .1-4.577 1.3 1.3 0 0 1 .1-.611 4.454 4.454 0 0 1 .712-.407l.712-.407c.306-.2.713-.407 1.018-.61a9.156 9.156 0 0 1 .915-.509l.1-.1a15.181 15.181 0 0 1 1.831-.916l.712-.407.509-.2C28.582 4 29.091 3.7 29.7 3.5l.814-.406.814-.306c.407-.1.814-.3 1.221-.407l1.221-.407a10.715 10.715 0 0 1 1.73-.412l.916-.2c.3-.1.61-.1.813-.2.712-.1 1.323-.306 2.035-.407A49.727 49.727 0 0 1 53.811.342c-.305 0-.102.101 0 .101zM18.715 13.465a1.415 1.415 0 0 1-.407.3 25.43 25.43 0 0 0-6.715 7.63 44.121 44.121 0 0 0-4.17 8.85c0 .1-.1.2-.1.3a.1.1 0 0 1-.1.1l-.1.1c-.1.1-.1.1-.1.2l-.2.2a23.115 23.115 0 0 0-4.883 2.746 3.252 3.252 0 0 1 .3-.915 3.258 3.258 0 0 1 .305-.916l.2-.712a3.6 3.6 0 0 1 .407-.915 2.509 2.509 0 0 1 .407-.916 10.239 10.239 0 0 1 .712-1.526c.407-.916.814-1.729 1.221-2.543.1-.1.1-.2.1-.407v-.1A2.568 2.568 0 0 1 6 24.248a9.269 9.269 0 0 1 .509-.916c.2-.3.305-.61.509-.915.61-.916 1.22-1.933 1.932-2.849a2.209 2.209 0 0 1 .713-.915 29.189 29.189 0 0 1 2.237-2.747 13.911 13.911 0 0 1 1.22-1.221c.916-.915 1.73-1.729 2.747-2.645a4.455 4.455 0 0 1 .712-.61c.2-.1.407-.407.712-.61l.814-.712.712-.611a24.521 24.521 0 0 0-.102 3.968zM52.59 93.322c0 .407-.305.407-.508.407A47.283 47.283 0 0 1 24 88.033l-.813-.509-.1-.1c1.729.407 3.357.814 4.985 1.119a25.8 25.8 0 0 0 6.816.611 1.3 1.3 0 0 1 .61.1c.61.2 1.119.509 1.729.712l.712.2c.407.1.916.305 1.425.407l.712.2c.508.1 1.017.305 1.526.407a8.559 8.559 0 0 1 1.526.407c.1 0 .1.1.2.1s.2.1.3.1c1.424.305 2.747.508 4.171.712.2 0 .407.1.712.1.1 0 .3.1.407.1.509.1 1.018.1 1.526.2a7.755 7.755 0 0 0 1.526.1c.417-.084.62-.185.62.323zM11.187 77.249l-.713-.814-.712-.814A50.151 50.151 0 0 1 6 69.925l-.305-.611c.814.509 1.526.916 2.34 1.323l.1.1a23.513 23.513 0 0 0 2.848 6.308c.204.102.204.102.204.204z"/></g></svg></g><g transform="translate(1226.25 2473.125) rotate(0.0 826.875 6.5625) scale(5.543283702159325 4.324546952224052)"><svg width="298.334" height="3.035" viewBox="0 0 298.334 3.035"><path d="M0 0h298.334v3.035H0z" fill="#2b2b2b"/></svg></g></svg>